<svg xmlns="http://www.w3.org/2000/svg" xmlns:xlink="http://www.w3.org/1999/xlink" width="500" zoomAndPan="magnify" viewBox="0 0 375 374.999991" height="500" preserveAspectRatio="xMidYMid meet" version="1.0"><defs><g/><clipPath id="f603f0ec32"><path d="M 49.5 147.042969 L 325.488281 147.042969 L 325.488281 236.269531 L 49.5 236.269531 Z M 49.5 147.042969 " clip-rule="nonzero"/></clipPath><clipPath id="6d90b5cb3e"><path d="M 183 163 L 206 163 L 206 210 L 183 210 Z M 183 163 " clip-rule="nonzero"/></clipPath><clipPath id="0930c3f955"><path d="M 173.597656 169.769531 L 203.824219 158.523438 L 218.464844 197.890625 L 188.238281 209.132812 Z M 173.597656 169.769531 " clip-rule="nonzero"/></clipPath><clipPath id="5925301685"><path d="M 173.597656 169.769531 L 203.824219 158.523438 L 218.464844 197.890625 L 188.238281 209.132812 Z M 173.597656 169.769531 " clip-rule="nonzero"/></clipPath><clipPath id="fb6c50b03d"><path d="M 121.566406 207.398438 L 253.433594 207.398438 L 253.433594 229.117188 L 121.566406 229.117188 Z M 121.566406 207.398438 " clip-rule="nonzero"/></clipPath></defs><g clip-path="url(#f603f0ec32)"><path stroke-linecap="butt" transform="matrix(0.75, 0, 0, 0.75, 49.500253, 147.044083)" fill="none" stroke-linejoin="miter" d="M -0.000337666 -0.00148586 L 367.984085 -0.00148586 L 367.984085 118.96728 L -0.000337666 118.96728 Z M -0.000337666 -0.00148586 " stroke="#ffffff" stroke-width="8" stroke-opacity="1" stroke-miterlimit="4"/></g><path stroke-linecap="butt" transform="matrix(0.75, 0, 0, 0.75, 262.687955, 159.184766)" fill="none" stroke-linejoin="miter" d="M 24.973353 10.076563 L 42.285854 10.076563 C 42.525437 10.076563 42.619187 10.196355 42.572312 10.435938 C 42.379604 11.99323 42.113979 14.034897 41.770229 16.566147 C 41.426479 19.097397 41.056687 21.826564 40.666062 24.748439 C 40.285854 27.670314 39.910854 30.524481 39.541062 33.305731 C 39.171271 36.076565 38.837937 38.482815 38.541062 40.524482 C 38.254604 42.571357 38.067104 43.977607 37.973354 44.753649 C 37.723354 46.211982 37.525437 47.711982 37.384812 49.243233 C 37.238979 50.774483 37.103562 52.144274 36.973354 53.342191 C 36.853562 54.529691 36.79627 55.321358 36.79627 55.717191 C 36.749395 55.904691 36.650437 55.998441 36.509812 55.998441 L 7.879602 55.998441 C 7.686894 55.998441 7.593143 55.930733 7.593143 55.7849 C 6.962935 53.003649 6.499393 50.170316 6.202518 47.284899 C 5.91606 44.383857 5.577518 41.493232 5.186893 38.618232 C 5.140018 38.180732 5.04106 37.43594 4.88481 36.389065 C 4.744185 35.34219 4.582727 34.21719 4.405643 33.003648 C 4.238977 31.77969 4.07231 30.633856 3.905643 29.56094 C 3.738977 28.493231 3.629602 27.711981 3.582727 27.227606 C 3.379602 26.300523 3.186893 24.998439 2.994185 23.321356 C 2.806685 21.649481 2.608768 19.883856 2.405643 18.029689 C 2.218143 16.175522 2.020226 14.52448 1.817101 13.071355 C 1.629601 11.607813 1.483768 10.659897 1.390018 10.222397 C 1.390018 10.123438 1.436893 10.076563 1.530643 10.076563 L 18.770228 10.076563 C 18.962936 10.076563 19.056686 10.170313 19.056686 10.363022 C 19.150436 12.264063 19.317103 14.019272 19.556686 15.623439 C 19.806686 17.227605 20.051478 18.894272 20.285853 20.628647 C 20.535853 22.352606 20.733769 24.310939 20.874394 26.498439 C 20.936894 27.076564 21.192103 27.409898 21.640019 27.493231 C 22.103561 27.566148 22.390019 27.310939 22.499394 26.727606 C 22.686894 24.529689 22.936895 22.581772 23.244186 20.878647 C 23.567103 19.170314 23.85877 17.498439 24.119186 15.873439 C 24.395228 14.24323 24.57752 12.404688 24.67127 10.363022 C 24.73377 10.170313 24.832728 10.076563 24.973353 10.076563 Z M 88.207732 55.998441 L 64.405647 55.998441 C 64.202522 55.998441 64.103564 55.87865 64.103564 55.644275 C 64.150439 54.717191 64.244189 53.461983 64.390022 51.883858 C 64.541064 50.290108 64.702522 48.691149 64.869189 47.086982 C 65.046272 45.482816 65.186897 44.238024 65.280647 43.363024 C 65.327522 43.264065 65.421272 43.196357 65.567106 43.144274 C 65.718147 43.097399 65.843147 43.076565 65.942106 43.076565 C 66.035856 43.12344 66.327522 43.144274 66.811897 43.144274 C 67.301481 43.144274 67.801481 43.144274 68.311897 43.144274 C 68.822314 43.144274 69.150439 43.144274 69.291064 43.144274 C 69.291064 43.144274 69.499398 43.050524 69.916064 42.863024 C 70.332731 42.659899 70.541064 42.316149 70.541064 41.826565 C 70.494189 41.59219 70.379606 40.878649 70.202523 39.68594 C 70.035856 38.488023 69.837939 37.12344 69.613981 35.586982 C 69.400439 34.055732 69.202523 32.586981 69.025439 31.18594 C 68.858773 29.769273 68.749398 28.717189 68.702523 28.029689 C 68.655648 26.961981 68.504606 26.060939 68.259814 25.336981 C 68.020231 24.602606 67.655647 24.232814 67.171272 24.232814 C 66.494189 24.185939 66.015022 24.519273 65.744189 25.232814 C 65.483772 25.930731 65.327522 26.477606 65.280647 26.868231 C 65.140022 27.941148 64.895231 29.451565 64.551481 31.399481 C 64.202522 33.336981 63.811897 35.477607 63.374397 37.816148 C 62.931689 40.159899 62.515022 42.49844 62.124397 44.842191 C 61.744189 47.170316 61.416064 49.295316 61.14523 51.222399 C 60.884814 53.149483 60.728564 54.623441 60.681689 55.644275 C 60.681689 55.87865 60.608772 55.998441 60.468147 55.998441 L 45.707729 55.998441 C 45.515021 55.998441 45.442104 55.852608 45.494188 55.555733 C 45.541063 55.363025 45.577521 55.1599 45.598354 54.946358 C 45.624396 54.7224 45.660854 54.514066 45.707729 54.326566 C 45.801479 53.883858 45.988979 52.946358 46.275438 51.508858 C 46.572313 50.071358 46.905646 48.451566 47.275438 46.659899 C 47.645229 44.852607 47.994188 43.113024 48.327521 41.43594 C 48.671271 39.758857 48.968146 38.456773 49.218146 37.52969 C 49.311896 36.889065 49.48898 35.821357 49.754605 34.321357 C 50.025438 32.81094 50.317105 31.071356 50.624396 29.097398 C 50.947313 27.123439 51.280646 25.107814 51.624396 23.040106 C 51.968146 20.967189 52.27023 19.008856 52.535855 17.154689 C 52.806688 15.300522 53.041063 13.769272 53.228563 12.55573 C 53.421272 11.331772 53.515022 10.602605 53.515022 10.363022 C 53.561897 10.170313 53.660855 10.076563 53.817105 10.076563 L 80.395232 10.076563 C 80.49419 10.076563 80.561898 10.170313 80.613982 10.363022 C 80.707732 10.847397 80.884815 11.857813 81.145232 13.394272 C 81.421273 14.925522 81.71294 16.644272 82.020232 18.545314 C 82.343148 20.435939 82.65044 22.248439 82.947315 23.982814 C 83.24419 25.706773 83.488982 27.055731 83.676482 28.029689 C 84.020232 29.977606 84.33794 31.925523 84.624399 33.878648 C 84.921274 35.826565 85.21294 37.774482 85.49419 39.722399 C 85.603565 40.102607 85.738982 40.847399 85.905649 41.951565 C 86.072315 43.045315 86.285857 44.290107 86.546274 45.675524 C 86.822315 47.055732 87.077524 48.451566 87.311899 49.868233 C 87.561899 51.279691 87.796274 52.498441 88.009815 53.524483 C 88.233774 54.545316 88.374399 55.2224 88.421274 55.555733 C 88.515024 55.852608 88.442107 55.998441 88.207732 55.998441 Z M 88.207732 55.998441 " stroke="#000000" stroke-width="5.4768" stroke-opacity="1" stroke-miterlimit="4"/><g fill="#ffffff" fill-opacity="1"><g transform="translate(262.687955, 201.184763)"><g><path d="M 18.734375 -34.453125 L 31.703125 -34.453125 C 31.890625 -34.453125 31.960938 -34.359375 31.921875 -34.171875 C 31.773438 -33.003906 31.570312 -31.46875 31.3125 -29.5625 C 31.0625 -27.664062 30.789062 -25.625 30.5 -23.4375 C 30.207031 -21.25 29.925781 -19.113281 29.65625 -17.03125 C 29.382812 -14.945312 29.140625 -13.140625 28.921875 -11.609375 C 28.703125 -10.078125 28.554688 -9.019531 28.484375 -8.4375 C 28.296875 -7.34375 28.144531 -6.21875 28.03125 -5.0625 C 27.925781 -3.914062 27.828125 -2.894531 27.734375 -2 C 27.648438 -1.101562 27.609375 -0.507812 27.609375 -0.21875 C 27.566406 -0.0703125 27.492188 0 27.390625 0 L 5.921875 0 C 5.773438 0 5.703125 -0.0546875 5.703125 -0.171875 C 5.222656 -2.242188 4.875 -4.363281 4.65625 -6.53125 C 4.4375 -8.707031 4.179688 -10.875 3.890625 -13.03125 C 3.847656 -13.363281 3.769531 -13.921875 3.65625 -14.703125 C 3.550781 -15.484375 3.4375 -16.332031 3.3125 -17.25 C 3.1875 -18.164062 3.054688 -19.023438 2.921875 -19.828125 C 2.796875 -20.628906 2.71875 -21.210938 2.6875 -21.578125 C 2.539062 -22.273438 2.394531 -23.25 2.25 -24.5 C 2.101562 -25.757812 1.957031 -27.082031 1.8125 -28.46875 C 1.664062 -29.863281 1.519531 -31.109375 1.375 -32.203125 C 1.226562 -33.296875 1.117188 -34.007812 1.046875 -34.34375 C 1.046875 -34.414062 1.082031 -34.453125 1.15625 -34.453125 L 14.078125 -34.453125 C 14.222656 -34.453125 14.296875 -34.378906 14.296875 -34.234375 C 14.367188 -32.804688 14.492188 -31.488281 14.671875 -30.28125 C 14.859375 -29.082031 15.039062 -27.832031 15.21875 -26.53125 C 15.40625 -25.238281 15.550781 -23.769531 15.65625 -22.125 C 15.695312 -21.6875 15.890625 -21.4375 16.234375 -21.375 C 16.585938 -21.320312 16.800781 -21.519531 16.875 -21.96875 C 17.019531 -23.601562 17.207031 -25.0625 17.4375 -26.34375 C 17.675781 -27.625 17.894531 -28.875 18.09375 -30.09375 C 18.300781 -31.3125 18.441406 -32.691406 18.515625 -34.234375 C 18.546875 -34.378906 18.617188 -34.453125 18.734375 -34.453125 Z M 18.734375 -34.453125 "/></g></g></g><g fill="#ffffff" fill-opacity="1"><g transform="translate(295.764056, 201.184763)"><g><path d="M 33.078125 0 L 15.21875 0 C 15.070312 0 15 -0.09375 15 -0.28125 C 15.039062 -0.96875 15.113281 -1.90625 15.21875 -3.09375 C 15.332031 -4.28125 15.453125 -5.472656 15.578125 -6.671875 C 15.703125 -7.878906 15.800781 -8.8125 15.875 -9.46875 C 15.914062 -9.539062 15.988281 -9.59375 16.09375 -9.625 C 16.207031 -9.664062 16.300781 -9.6875 16.375 -9.6875 C 16.445312 -9.65625 16.664062 -9.640625 17.03125 -9.640625 C 17.394531 -9.640625 17.769531 -9.640625 18.15625 -9.640625 C 18.539062 -9.640625 18.785156 -9.640625 18.890625 -9.640625 C 18.890625 -9.640625 19.046875 -9.710938 19.359375 -9.859375 C 19.671875 -10.003906 19.828125 -10.257812 19.828125 -10.625 C 19.785156 -10.800781 19.703125 -11.335938 19.578125 -12.234375 C 19.453125 -13.128906 19.304688 -14.148438 19.140625 -15.296875 C 18.972656 -16.453125 18.828125 -17.554688 18.703125 -18.609375 C 18.578125 -19.671875 18.492188 -20.457031 18.453125 -20.96875 C 18.421875 -21.78125 18.3125 -22.457031 18.125 -23 C 17.945312 -23.550781 17.675781 -23.828125 17.3125 -23.828125 C 16.800781 -23.859375 16.441406 -23.609375 16.234375 -23.078125 C 16.035156 -22.554688 15.914062 -22.144531 15.875 -21.84375 C 15.769531 -21.039062 15.585938 -19.910156 15.328125 -18.453125 C 15.078125 -16.992188 14.785156 -15.390625 14.453125 -13.640625 C 14.128906 -11.890625 13.820312 -10.132812 13.53125 -8.375 C 13.238281 -6.625 12.988281 -5.023438 12.78125 -3.578125 C 12.582031 -2.140625 12.46875 -1.039062 12.4375 -0.28125 C 12.4375 -0.09375 12.378906 0 12.265625 0 L 1.203125 0 C 1.054688 0 1.003906 -0.109375 1.046875 -0.328125 C 1.078125 -0.472656 1.101562 -0.628906 1.125 -0.796875 C 1.144531 -0.960938 1.171875 -1.117188 1.203125 -1.265625 C 1.273438 -1.585938 1.421875 -2.285156 1.640625 -3.359375 C 1.859375 -4.441406 2.101562 -5.65625 2.375 -7 C 2.65625 -8.351562 2.921875 -9.660156 3.171875 -10.921875 C 3.429688 -12.179688 3.648438 -13.160156 3.828125 -13.859375 C 3.898438 -14.328125 4.035156 -15.128906 4.234375 -16.265625 C 4.441406 -17.398438 4.660156 -18.707031 4.890625 -20.1875 C 5.128906 -21.664062 5.378906 -23.175781 5.640625 -24.71875 C 5.898438 -26.269531 6.128906 -27.738281 6.328125 -29.125 C 6.523438 -30.519531 6.695312 -31.671875 6.84375 -32.578125 C 6.988281 -33.492188 7.0625 -34.046875 7.0625 -34.234375 C 7.101562 -34.378906 7.175781 -34.453125 7.28125 -34.453125 L 27.21875 -34.453125 C 27.289062 -34.453125 27.347656 -34.378906 27.390625 -34.234375 C 27.460938 -33.867188 27.597656 -33.109375 27.796875 -31.953125 C 27.992188 -30.804688 28.210938 -29.519531 28.453125 -28.09375 C 28.691406 -26.664062 28.921875 -25.304688 29.140625 -24.015625 C 29.359375 -22.722656 29.539062 -21.707031 29.6875 -20.96875 C 29.9375 -19.507812 30.171875 -18.050781 30.390625 -16.59375 C 30.609375 -15.132812 30.828125 -13.675781 31.046875 -12.21875 C 31.117188 -11.925781 31.21875 -11.367188 31.34375 -10.546875 C 31.476562 -9.722656 31.644531 -8.789062 31.84375 -7.75 C 32.039062 -6.707031 32.226562 -5.65625 32.40625 -4.59375 C 32.59375 -3.539062 32.769531 -2.628906 32.9375 -1.859375 C 33.101562 -1.097656 33.207031 -0.585938 33.25 -0.328125 C 33.320312 -0.109375 33.265625 0 33.078125 0 Z M 33.078125 0 "/></g></g></g><path stroke-linecap="butt" transform="matrix(0.75, 0, 0, 0.75, 231.528841, 159.184737)" fill="none" stroke-linejoin="miter" d="M 42.357381 24.232853 C 42.357381 25.503686 42.357381 27.045353 42.357381 28.847436 C 42.357381 30.644311 42.357381 32.446395 42.357381 34.248478 C 42.357381 36.045353 42.357381 37.550562 42.357381 38.758895 C 42.357381 40.665145 42.123006 42.295354 41.659464 43.665146 C 41.201131 45.019312 40.596964 46.378687 39.862589 47.748479 C 39.232381 48.909938 38.451131 49.946396 37.524047 50.847438 C 36.612589 51.753688 35.643839 52.519313 34.617797 53.149521 C 33.346964 53.930771 32.065714 54.59223 30.768839 55.128688 C 29.487589 55.659938 27.774047 55.930771 25.633422 55.930771 C 25.336547 55.930771 24.690713 55.930771 23.690713 55.930771 C 22.695921 55.930771 21.612588 55.930771 20.445921 55.930771 C 19.284463 55.930771 18.248004 55.930771 17.346963 55.930771 C 16.440713 55.930771 15.966754 55.930771 15.919879 55.930771 C 13.925088 55.831813 12.044879 55.337021 10.284462 54.430771 C 8.53967 53.52973 7.13342 52.540146 6.060504 51.472438 C 5.47717 50.889104 4.857379 50.040146 4.190712 48.920354 C 3.534462 47.795354 2.987587 46.623479 2.550087 45.409937 C 2.107378 44.196396 1.888628 43.128687 1.888628 42.201604 C 1.888628 41.52452 1.888628 40.404729 1.888628 38.852645 C 1.888628 37.279728 1.888628 35.550562 1.888628 33.665145 C 1.888628 31.758895 1.888628 29.935978 1.888628 28.191186 C 1.888628 26.430769 1.888628 25.014103 1.888628 23.946394 C 1.888628 21.852644 2.216753 20.019311 2.867795 18.435977 C 3.534462 16.847435 4.310504 15.592227 5.185504 14.67556 C 6.742795 13.014102 8.211545 11.899518 9.591754 11.342227 C 10.982379 10.784935 12.675087 10.383893 14.669879 10.149518 C 14.716754 10.102643 15.253213 10.087018 16.274046 10.11306 C 17.300088 10.139102 18.550088 10.149518 20.039671 10.149518 C 21.524046 10.149518 23.008421 10.149518 24.492797 10.149518 C 25.98238 10.149518 27.185505 10.149518 28.112588 10.149518 C 30.01363 10.149518 31.768839 10.415143 33.373005 10.951602 C 34.977172 11.48806 36.440714 12.383893 37.758422 13.64431 C 39.112589 14.915144 40.216756 16.534935 41.076131 18.508894 C 41.930298 20.482852 42.357381 22.389102 42.357381 24.232853 Z M 19.128213 37.389103 C 19.128213 39.279729 19.383421 40.529729 19.893838 41.14952 C 20.404255 41.753687 21.055296 42.060979 21.836546 42.060979 C 22.810505 42.060979 23.41988 41.61827 23.654255 40.738062 C 23.904255 39.863062 24.029255 39.154729 24.029255 38.61827 C 24.029255 36.77452 24.065713 34.831812 24.13863 32.790145 C 24.211547 30.732853 24.221963 29.029728 24.175088 27.670353 C 24.07613 26.555769 23.904255 25.602644 23.654255 24.821394 C 23.41988 24.034936 22.810505 23.644311 21.836546 23.644311 C 20.956338 23.644311 20.336546 23.873478 19.966755 24.337019 C 19.60738 24.800561 19.378213 25.342228 19.268838 25.962019 C 19.175088 26.566186 19.128213 27.060978 19.128213 27.441186 C 19.128213 27.93077 19.128213 28.722436 19.128213 29.831811 C 19.128213 30.925561 19.128213 32.154728 19.128213 33.519312 C 19.128213 34.873478 19.128213 36.165145 19.128213 37.389103 Z M 19.128213 37.389103 " stroke="#000000" stroke-width="5.476785" stroke-opacity="1" stroke-miterlimit="4"/><g fill="#ffffff" fill-opacity="1"><g transform="translate(231.528841, 201.184734)"><g><path d="M 31.765625 -23.828125 C 31.765625 -22.878906 31.765625 -21.726562 31.765625 -20.375 C 31.765625 -19.019531 31.765625 -17.664062 31.765625 -16.3125 C 31.765625 -14.96875 31.765625 -13.835938 31.765625 -12.921875 C 31.765625 -11.492188 31.585938 -10.269531 31.234375 -9.25 C 30.890625 -8.226562 30.445312 -7.207031 29.90625 -6.1875 C 29.425781 -5.3125 28.835938 -4.535156 28.140625 -3.859375 C 27.453125 -3.179688 26.722656 -2.609375 25.953125 -2.140625 C 25.003906 -1.554688 24.046875 -1.0625 23.078125 -0.65625 C 22.109375 -0.257812 20.820312 -0.0625 19.21875 -0.0625 C 19 -0.0625 18.515625 -0.0625 17.765625 -0.0625 C 17.023438 -0.0625 16.210938 -0.0625 15.328125 -0.0625 C 14.453125 -0.0625 13.675781 -0.0625 13 -0.0625 C 12.332031 -0.0625 11.976562 -0.0625 11.9375 -0.0625 C 10.4375 -0.132812 9.03125 -0.503906 7.71875 -1.171875 C 6.40625 -1.847656 5.347656 -2.585938 4.546875 -3.390625 C 4.109375 -3.828125 3.640625 -4.46875 3.140625 -5.3125 C 2.648438 -6.15625 2.238281 -7.03125 1.90625 -7.9375 C 1.582031 -8.851562 1.421875 -9.65625 1.421875 -10.34375 C 1.421875 -10.863281 1.421875 -11.707031 1.421875 -12.875 C 1.421875 -14.039062 1.421875 -15.332031 1.421875 -16.75 C 1.421875 -18.175781 1.421875 -19.546875 1.421875 -20.859375 C 1.421875 -22.179688 1.421875 -23.242188 1.421875 -24.046875 C 1.421875 -25.609375 1.664062 -26.984375 2.15625 -28.171875 C 2.65625 -29.359375 3.234375 -30.300781 3.890625 -31 C 5.054688 -32.238281 6.160156 -33.066406 7.203125 -33.484375 C 8.242188 -33.910156 9.515625 -34.210938 11.015625 -34.390625 C 11.046875 -34.429688 11.441406 -34.441406 12.203125 -34.421875 C 12.972656 -34.398438 13.914062 -34.390625 15.03125 -34.390625 C 16.144531 -34.390625 17.257812 -34.390625 18.375 -34.390625 C 19.488281 -34.390625 20.390625 -34.390625 21.078125 -34.390625 C 22.503906 -34.390625 23.816406 -34.1875 25.015625 -33.78125 C 26.222656 -33.382812 27.320312 -32.710938 28.3125 -31.765625 C 29.332031 -30.816406 30.160156 -29.601562 30.796875 -28.125 C 31.441406 -26.644531 31.765625 -25.210938 31.765625 -23.828125 Z M 14.34375 -13.96875 C 14.34375 -12.539062 14.535156 -11.597656 14.921875 -11.140625 C 15.304688 -10.679688 15.789062 -10.453125 16.375 -10.453125 C 17.101562 -10.453125 17.554688 -10.78125 17.734375 -11.4375 C 17.921875 -12.101562 18.015625 -12.632812 18.015625 -13.03125 C 18.015625 -14.414062 18.039062 -15.875 18.09375 -17.40625 C 18.15625 -18.945312 18.164062 -20.226562 18.125 -21.25 C 18.050781 -22.09375 17.921875 -22.804688 17.734375 -23.390625 C 17.554688 -23.972656 17.101562 -24.265625 16.375 -24.265625 C 15.71875 -24.265625 15.25 -24.085938 14.96875 -23.734375 C 14.695312 -23.390625 14.523438 -22.988281 14.453125 -22.53125 C 14.378906 -22.070312 14.34375 -21.695312 14.34375 -21.40625 C 14.34375 -21.039062 14.34375 -20.445312 14.34375 -19.625 C 14.34375 -18.8125 14.34375 -17.890625 14.34375 -16.859375 C 14.34375 -15.835938 14.34375 -14.875 14.34375 -13.96875 Z M 14.34375 -13.96875 "/></g></g></g><path stroke-linecap="butt" transform="matrix(0.75, 0, 0, 0.75, 199.638551, 158.091011)" fill="none" stroke-linejoin="miter" d="M 43.159019 35.123446 C 43.159019 36.290112 43.148602 37.706779 43.12256 39.383863 C 43.101727 41.060946 43.086102 42.816155 43.086102 44.64428 C 43.086102 46.472405 43.075685 48.191155 43.054852 49.795322 C 43.02881 51.399488 43.018394 52.748447 43.018394 53.842197 C 43.018394 54.935947 43.039227 55.58178 43.086102 55.784905 C 43.086102 55.930739 43.034019 55.998447 42.929852 55.998447 L 24.101726 55.998447 C 23.997559 55.998447 23.940267 55.951572 23.940267 55.857822 C 23.752767 55.274489 23.565267 54.691155 23.388184 54.107822 C 23.221517 53.514072 23.044434 52.92553 22.856934 52.347405 C 22.414226 51.133863 22.060059 49.711988 21.784017 48.086988 C 21.523601 46.446363 21.127767 45.139071 20.591309 44.165113 C 20.351726 43.628655 20.002767 43.498446 19.539225 43.76928 C 19.075684 44.029696 18.841309 44.482821 18.841309 45.123446 C 18.747559 46.680738 18.737142 48.45678 18.810059 50.45678 C 18.877767 52.451572 18.940267 54.227614 18.987142 55.784905 C 18.987142 55.930739 18.940267 55.998447 18.841309 55.998447 L 2.049641 55.930739 C 1.945474 55.930739 1.888183 55.878655 1.888183 55.784905 C 1.888183 51.743238 1.935058 47.727613 2.034016 43.732821 C 2.138183 39.743238 2.190266 35.722404 2.190266 31.685945 C 2.190266 30.316154 2.179849 28.711987 2.159016 26.868237 C 2.132974 25.01407 2.122558 23.128653 2.122558 21.20157 C 2.122558 19.274486 2.112141 17.477611 2.086099 15.800528 C 2.060058 14.123444 2.039224 12.774486 2.013183 11.753652 C 1.992349 10.732819 1.976724 10.222402 1.976724 10.222402 C 1.976724 10.123444 2.028808 10.076569 2.122558 10.076569 L 20.445476 10.076569 C 20.497559 10.076569 20.544434 10.123444 20.591309 10.222402 C 20.935059 11.336986 21.247559 12.685944 21.534017 14.264069 C 21.830892 15.847403 22.148601 17.425528 22.481934 19.008861 C 22.825684 20.586986 23.216309 21.92032 23.659017 23.003653 C 23.846517 23.633862 24.237142 23.821362 24.830893 23.571362 C 25.273601 23.430737 25.518393 22.998445 25.565268 22.269278 C 25.659018 21.248445 25.716309 20.008861 25.742351 18.54532 C 25.768393 17.081778 25.778809 15.597403 25.778809 14.086986 C 25.778809 12.576569 25.778809 11.310944 25.778809 10.290111 C 25.778809 10.149486 25.825684 10.076569 25.919434 10.076569 L 43.086102 10.076569 C 43.18506 10.076569 43.231935 10.149486 43.231935 10.290111 C 43.231935 10.336986 43.231935 10.383861 43.231935 10.435944 C 43.231935 14.571361 43.221519 18.691153 43.195477 22.805737 C 43.169435 26.92032 43.159019 31.024487 43.159019 35.123446 Z M 43.159019 35.123446 " stroke="#000000" stroke-width="5.4768" stroke-opacity="1" stroke-miterlimit="4"/><g fill="#ff3131" fill-opacity="1"><g transform="translate(199.638551, 200.091008)"><g><path d="M 32.359375 -15.65625 C 32.359375 -14.78125 32.347656 -13.710938 32.328125 -12.453125 C 32.316406 -11.191406 32.3125 -9.878906 32.3125 -8.515625 C 32.3125 -7.148438 32.300781 -5.863281 32.28125 -4.65625 C 32.257812 -3.445312 32.25 -2.429688 32.25 -1.609375 C 32.25 -0.796875 32.269531 -0.316406 32.3125 -0.171875 C 32.3125 -0.0546875 32.273438 0 32.203125 0 L 18.078125 0 C 18.003906 0 17.96875 -0.0351562 17.96875 -0.109375 C 17.820312 -0.546875 17.679688 -0.984375 17.546875 -1.421875 C 17.421875 -1.859375 17.285156 -2.296875 17.140625 -2.734375 C 16.816406 -3.648438 16.550781 -4.71875 16.34375 -5.9375 C 16.144531 -7.164062 15.84375 -8.144531 15.4375 -8.875 C 15.257812 -9.269531 14.992188 -9.367188 14.640625 -9.171875 C 14.296875 -8.972656 14.125 -8.632812 14.125 -8.15625 C 14.050781 -6.988281 14.039062 -5.65625 14.09375 -4.15625 C 14.15625 -2.664062 14.203125 -1.335938 14.234375 -0.171875 C 14.234375 -0.0546875 14.195312 0 14.125 0 L 1.53125 -0.0625 C 1.457031 -0.0625 1.421875 -0.0976562 1.421875 -0.171875 C 1.421875 -3.191406 1.457031 -6.195312 1.53125 -9.1875 C 1.601562 -12.1875 1.640625 -15.203125 1.640625 -18.234375 C 1.640625 -19.253906 1.628906 -20.457031 1.609375 -21.84375 C 1.597656 -23.238281 1.59375 -24.65625 1.59375 -26.09375 C 1.59375 -27.539062 1.582031 -28.890625 1.5625 -30.140625 C 1.539062 -31.398438 1.519531 -32.414062 1.5 -33.1875 C 1.488281 -33.957031 1.484375 -34.34375 1.484375 -34.34375 C 1.484375 -34.414062 1.519531 -34.453125 1.59375 -34.453125 L 15.328125 -34.453125 C 15.367188 -34.453125 15.40625 -34.414062 15.4375 -34.34375 C 15.695312 -33.5 15.9375 -32.484375 16.15625 -31.296875 C 16.375 -30.109375 16.609375 -28.921875 16.859375 -27.734375 C 17.117188 -26.546875 17.414062 -25.550781 17.75 -24.75 C 17.894531 -24.28125 18.1875 -24.132812 18.625 -24.3125 C 18.945312 -24.425781 19.128906 -24.753906 19.171875 -25.296875 C 19.242188 -26.066406 19.285156 -27 19.296875 -28.09375 C 19.316406 -29.1875 19.328125 -30.300781 19.328125 -31.4375 C 19.328125 -32.570312 19.328125 -33.519531 19.328125 -34.28125 C 19.328125 -34.394531 19.363281 -34.453125 19.4375 -34.453125 L 32.3125 -34.453125 C 32.382812 -34.453125 32.421875 -34.394531 32.421875 -34.28125 C 32.421875 -34.25 32.421875 -34.210938 32.421875 -34.171875 C 32.421875 -31.066406 32.410156 -27.972656 32.390625 -24.890625 C 32.367188 -21.804688 32.359375 -18.726562 32.359375 -15.65625 Z M 32.359375 -15.65625 "/></g></g></g><g clip-path="url(#6d90b5cb3e)"><g clip-path="url(#0930c3f955)"><g clip-path="url(#5925301685)"><path fill="#000000" d="M 190.234375 163.582031 L 183.90625 187.082031 L 191.347656 186.828125 L 188.238281 209.132812 L 203.671875 179.726562 L 196.640625 179.894531 L 205.84375 163.382812 Z M 190.234375 163.582031 " fill-opacity="1" fill-rule="nonzero"/></g></g></g><g clip-path="url(#fb6c50b03d)"><path fill="#000000" d="M 121.566406 207.398438 L 253.402344 207.398438 L 253.402344 229.117188 L 121.566406 229.117188 Z M 121.566406 207.398438 " fill-opacity="1" fill-rule="nonzero"/></g><path stroke-linecap="butt" transform="matrix(0.75, 0, 0, 0.75, 121.564588, 158.63788)" fill="none" stroke-linejoin="miter" d="M 42.929511 46.284913 C 42.929511 46.821371 42.929511 47.597413 42.929511 48.618247 C 42.929511 49.63908 42.939928 50.706788 42.965969 51.810955 C 42.997219 52.904705 43.018053 53.831789 43.018053 54.592205 C 43.018053 55.342205 43.018053 55.717205 43.018053 55.717205 C 43.018053 55.904705 42.939928 55.998455 42.783678 55.998455 L 2.0493 55.998455 C 1.846175 55.998455 1.747216 55.904705 1.747216 55.717205 C 1.747216 54.738039 1.783675 53.753664 1.856591 52.753663 C 1.934717 51.758872 2.028467 50.769288 2.122217 49.79533 C 2.309717 47.847413 2.419092 45.685955 2.439925 43.305746 C 2.465967 40.920329 2.45555 38.748454 2.408675 36.800537 L 2.408675 36.727621 C 2.408675 36.623454 2.45555 36.545329 2.5493 36.498454 C 4.403467 35.774496 6.252425 35.071371 8.090967 34.394287 C 9.945134 33.701579 11.825342 33.045329 13.726384 32.41512 C 15.096176 31.925537 16.627426 31.274495 18.325343 30.451579 C 20.023259 29.623454 21.757634 28.592204 23.512843 27.368245 C 24.096176 26.988037 24.314926 26.47762 24.174301 25.836995 C 23.971176 25.159912 23.533676 24.82137 22.856593 24.82137 C 20.132634 24.91512 17.773259 25.066162 15.778467 25.264078 C 13.778467 25.456787 11.773259 25.628662 9.752425 25.784912 C 7.731592 25.925537 5.382633 26.019287 2.710758 26.066162 C 2.507633 26.066162 2.408675 25.967203 2.408675 25.764078 C 2.408675 23.722412 2.372217 21.753661 2.2993 19.863036 C 2.226383 17.961995 2.195133 16.014078 2.195133 14.019286 C 2.14305 12.696369 2.096175 11.477619 2.0493 10.363036 C 2.0493 10.170327 2.122217 10.076577 2.262842 10.076577 L 42.715969 10.076577 C 42.913886 10.076577 43.018053 10.170327 43.018053 10.363036 C 43.018053 10.363036 43.018053 10.826577 43.018053 11.753661 C 43.018053 12.680744 43.018053 13.863036 43.018053 15.300536 C 43.018053 16.727619 43.018053 18.238036 43.018053 19.826578 C 43.018053 21.409911 43.018053 22.920328 43.018053 24.357828 C 43.018053 25.784912 43.018053 26.94637 43.018053 27.85262 C 43.018053 28.753662 43.018053 29.206787 43.018053 29.206787 C 43.018053 29.300537 42.986803 29.373454 42.929511 29.420329 C 41.085761 30.488037 39.408677 31.41512 37.898261 32.201579 C 36.393052 32.972412 34.92951 33.717204 33.512844 34.430746 C 32.101385 35.128662 30.590968 35.873454 28.986802 36.659912 C 27.382635 37.430746 25.559718 38.326579 23.512843 39.347413 C 22.882635 39.696371 22.674301 40.206788 22.887843 40.883871 C 23.11701 41.560954 23.544093 41.899496 24.174301 41.899496 C 26.018051 41.899496 27.632635 41.863038 29.02326 41.790121 C 30.413885 41.722413 31.752427 41.613038 33.033677 41.472413 C 34.330552 41.326579 35.757635 41.159913 37.309719 40.972413 C 38.867011 40.769288 40.742011 40.566163 42.929511 40.363038 C 43.080553 40.363038 43.158678 40.467204 43.158678 40.670329 C 43.205553 41.878663 43.179511 42.821371 43.070136 43.48283 C 42.976386 44.13908 42.929511 45.071371 42.929511 46.284913 Z M 88.122222 46.284913 C 88.122222 46.821371 88.122222 47.597413 88.122222 48.618247 C 88.122222 49.63908 88.137847 50.706788 88.15868 51.810955 C 88.195139 52.904705 88.215972 53.831789 88.215972 54.592205 C 88.215972 55.342205 88.215972 55.717205 88.215972 55.717205 C 88.215972 55.904705 88.137847 55.998455 87.981597 55.998455 L 47.247219 55.998455 C 47.044094 55.998455 46.945136 55.904705 46.945136 55.717205 C 46.945136 54.738039 46.981594 53.753664 47.049303 52.753663 C 47.132636 51.758872 47.221178 50.769288 47.320136 49.79533 C 47.507636 47.847413 47.617011 45.685955 47.637845 43.305746 C 47.663886 40.920329 47.65347 38.748454 47.601386 36.800537 L 47.601386 36.727621 C 47.601386 36.623454 47.65347 36.545329 47.74722 36.498454 C 49.601386 35.774496 51.450345 35.071371 53.288887 34.394287 C 55.143053 33.701579 57.023262 33.045329 58.924304 32.41512 C 60.288887 31.925537 61.825345 31.274495 63.523262 30.451579 C 65.221179 29.623454 66.950346 28.592204 68.710763 27.368245 C 69.294096 26.988037 69.512846 26.47762 69.372221 25.836995 C 69.169096 25.159912 68.726388 24.82137 68.049304 24.82137 C 65.330554 24.91512 62.971179 25.066162 60.971179 25.264078 C 58.976387 25.456787 56.971178 25.628662 54.950345 25.784912 C 52.929512 25.925537 50.580553 26.019287 47.908678 26.066162 C 47.705553 26.066162 47.601386 25.967203 47.601386 25.764078 C 47.601386 23.722412 47.570136 21.753661 47.497219 19.863036 C 47.424303 17.961995 47.387844 16.014078 47.387844 14.019286 C 47.340969 12.696369 47.294094 11.477619 47.247219 10.363036 C 47.247219 10.170327 47.320136 10.076577 47.460761 10.076577 L 87.90868 10.076577 C 88.111805 10.076577 88.215972 10.170327 88.215972 10.363036 C 88.215972 10.363036 88.215972 10.826577 88.215972 11.753661 C 88.215972 12.680744 88.215972 13.863036 88.215972 15.300536 C 88.215972 16.727619 88.215972 18.238036 88.215972 19.826578 C 88.215972 21.409911 88.215972 22.920328 88.215972 24.357828 C 88.215972 25.784912 88.215972 26.94637 88.215972 27.85262 C 88.215972 28.753662 88.215972 29.206787 88.215972 29.206787 C 88.215972 29.300537 88.184722 29.373454 88.122222 29.420329 C 86.28368 30.488037 84.606597 31.41512 83.09618 32.201579 C 81.585763 32.972412 80.12743 33.717204 78.710763 34.430746 C 77.299305 35.128662 75.788888 35.873454 74.184721 36.659912 C 72.580554 37.430746 70.752429 38.326579 68.710763 39.347413 C 68.080554 39.696371 67.872221 40.206788 68.085763 40.883871 C 68.314929 41.560954 68.742013 41.899496 69.372221 41.899496 C 71.210763 41.899496 72.830554 41.863038 74.22118 41.790121 C 75.611805 41.722413 76.945138 41.613038 78.231597 41.472413 C 79.523263 41.326579 80.950347 41.159913 82.507638 40.972413 C 84.06493 40.769288 85.93993 40.566163 88.122222 40.363038 C 88.278472 40.363038 88.356597 40.467204 88.356597 40.670329 C 88.403472 41.878663 88.372222 42.821371 88.268056 43.48283 C 88.174306 44.13908 88.122222 45.071371 88.122222 46.284913 Z M 88.122222 46.284913 " stroke="#000000" stroke-width="5.4768" stroke-opacity="1" stroke-miterlimit="4"/><g fill="#ffffff" fill-opacity="1"><g transform="translate(121.564588, 200.637877)"><g><path d="M 32.203125 -7.28125 C 32.203125 -6.882812 32.203125 -6.300781 32.203125 -5.53125 C 32.203125 -4.757812 32.207031 -3.960938 32.21875 -3.140625 C 32.238281 -2.328125 32.25 -1.632812 32.25 -1.0625 C 32.25 -0.5 32.25 -0.21875 32.25 -0.21875 C 32.25 -0.0703125 32.195312 0 32.09375 0 L 1.53125 0 C 1.382812 0 1.3125 -0.0703125 1.3125 -0.21875 C 1.3125 -0.945312 1.335938 -1.6875 1.390625 -2.4375 C 1.453125 -3.1875 1.519531 -3.925781 1.59375 -4.65625 C 1.738281 -6.113281 1.816406 -7.738281 1.828125 -9.53125 C 1.847656 -11.320312 1.84375 -12.945312 1.8125 -14.40625 L 1.8125 -14.453125 C 1.8125 -14.523438 1.847656 -14.582031 1.921875 -14.625 C 3.304688 -15.164062 4.691406 -15.691406 6.078125 -16.203125 C 7.460938 -16.722656 8.867188 -17.21875 10.296875 -17.6875 C 11.316406 -18.050781 12.460938 -18.539062 13.734375 -19.15625 C 15.015625 -19.78125 16.316406 -20.550781 17.640625 -21.46875 C 18.078125 -21.757812 18.238281 -22.144531 18.125 -22.625 C 17.976562 -23.132812 17.648438 -23.390625 17.140625 -23.390625 C 15.097656 -23.316406 13.328125 -23.207031 11.828125 -23.0625 C 10.328125 -22.914062 8.816406 -22.785156 7.296875 -22.671875 C 5.785156 -22.566406 4.03125 -22.492188 2.03125 -22.453125 C 1.882812 -22.453125 1.8125 -22.523438 1.8125 -22.671875 C 1.8125 -24.203125 1.78125 -25.679688 1.71875 -27.109375 C 1.664062 -28.535156 1.640625 -29.992188 1.640625 -31.484375 C 1.609375 -32.472656 1.570312 -33.390625 1.53125 -34.234375 C 1.53125 -34.378906 1.585938 -34.453125 1.703125 -34.453125 L 32.03125 -34.453125 C 32.175781 -34.453125 32.25 -34.378906 32.25 -34.234375 C 32.25 -34.234375 32.25 -33.882812 32.25 -33.1875 C 32.25 -32.488281 32.25 -31.601562 32.25 -30.53125 C 32.25 -29.457031 32.25 -28.328125 32.25 -27.140625 C 32.25 -25.953125 32.25 -24.816406 32.25 -23.734375 C 32.25 -22.660156 32.25 -21.785156 32.25 -21.109375 C 32.25 -20.429688 32.25 -20.09375 32.25 -20.09375 C 32.25 -20.019531 32.234375 -19.96875 32.203125 -19.9375 C 30.816406 -19.132812 29.554688 -18.441406 28.421875 -17.859375 C 27.285156 -17.273438 26.1875 -16.71875 25.125 -16.1875 C 24.070312 -15.65625 22.941406 -15.097656 21.734375 -14.515625 C 20.535156 -13.929688 19.171875 -13.253906 17.640625 -12.484375 C 17.160156 -12.234375 17.003906 -11.847656 17.171875 -11.328125 C 17.335938 -10.816406 17.65625 -10.5625 18.125 -10.5625 C 19.507812 -10.5625 20.722656 -10.585938 21.765625 -10.640625 C 22.804688 -10.703125 23.8125 -10.785156 24.78125 -10.890625 C 25.75 -11.003906 26.816406 -11.132812 27.984375 -11.28125 C 29.148438 -11.425781 30.554688 -11.570312 32.203125 -11.71875 C 32.304688 -11.71875 32.359375 -11.644531 32.359375 -11.5 C 32.398438 -10.582031 32.382812 -9.878906 32.3125 -9.390625 C 32.238281 -8.898438 32.203125 -8.195312 32.203125 -7.28125 Z M 32.203125 -7.28125 "/></g></g></g><g fill="#ffffff" fill-opacity="1"><g transform="translate(155.462122, 200.637877)"><g><path d="M 32.203125 -7.28125 C 32.203125 -6.882812 32.203125 -6.300781 32.203125 -5.53125 C 32.203125 -4.757812 32.207031 -3.960938 32.21875 -3.140625 C 32.238281 -2.328125 32.25 -1.632812 32.25 -1.0625 C 32.25 -0.5 32.25 -0.21875 32.25 -0.21875 C 32.25 -0.0703125 32.195312 0 32.09375 0 L 1.53125 0 C 1.382812 0 1.3125 -0.0703125 1.3125 -0.21875 C 1.3125 -0.945312 1.335938 -1.6875 1.390625 -2.4375 C 1.453125 -3.1875 1.519531 -3.925781 1.59375 -4.65625 C 1.738281 -6.113281 1.816406 -7.738281 1.828125 -9.53125 C 1.847656 -11.320312 1.84375 -12.945312 1.8125 -14.40625 L 1.8125 -14.453125 C 1.8125 -14.523438 1.847656 -14.582031 1.921875 -14.625 C 3.304688 -15.164062 4.691406 -15.691406 6.078125 -16.203125 C 7.460938 -16.722656 8.867188 -17.21875 10.296875 -17.6875 C 11.316406 -18.050781 12.460938 -18.539062 13.734375 -19.15625 C 15.015625 -19.78125 16.316406 -20.550781 17.640625 -21.46875 C 18.078125 -21.757812 18.238281 -22.144531 18.125 -22.625 C 17.976562 -23.132812 17.648438 -23.390625 17.140625 -23.390625 C 15.097656 -23.316406 13.328125 -23.207031 11.828125 -23.0625 C 10.328125 -22.914062 8.816406 -22.785156 7.296875 -22.671875 C 5.785156 -22.566406 4.03125 -22.492188 2.03125 -22.453125 C 1.882812 -22.453125 1.8125 -22.523438 1.8125 -22.671875 C 1.8125 -24.203125 1.78125 -25.679688 1.71875 -27.109375 C 1.664062 -28.535156 1.640625 -29.992188 1.640625 -31.484375 C 1.609375 -32.472656 1.570312 -33.390625 1.53125 -34.234375 C 1.53125 -34.378906 1.585938 -34.453125 1.703125 -34.453125 L 32.03125 -34.453125 C 32.175781 -34.453125 32.25 -34.378906 32.25 -34.234375 C 32.25 -34.234375 32.25 -33.882812 32.25 -33.1875 C 32.25 -32.488281 32.25 -31.601562 32.25 -30.53125 C 32.25 -29.457031 32.25 -28.328125 32.25 -27.140625 C 32.25 -25.953125 32.25 -24.816406 32.25 -23.734375 C 32.25 -22.660156 32.25 -21.785156 32.25 -21.109375 C 32.25 -20.429688 32.25 -20.09375 32.25 -20.09375 C 32.25 -20.019531 32.234375 -19.96875 32.203125 -19.9375 C 30.816406 -19.132812 29.554688 -18.441406 28.421875 -17.859375 C 27.285156 -17.273438 26.1875 -16.71875 25.125 -16.1875 C 24.070312 -15.65625 22.941406 -15.097656 21.734375 -14.515625 C 20.535156 -13.929688 19.171875 -13.253906 17.640625 -12.484375 C 17.160156 -12.234375 17.003906 -11.847656 17.171875 -11.328125 C 17.335938 -10.816406 17.65625 -10.5625 18.125 -10.5625 C 19.507812 -10.5625 20.722656 -10.585938 21.765625 -10.640625 C 22.804688 -10.703125 23.8125 -10.785156 24.78125 -10.890625 C 25.75 -11.003906 26.816406 -11.132812 27.984375 -11.28125 C 29.148438 -11.425781 30.554688 -11.570312 32.203125 -11.71875 C 32.304688 -11.71875 32.359375 -11.644531 32.359375 -11.5 C 32.398438 -10.582031 32.382812 -9.878906 32.3125 -9.390625 C 32.238281 -8.898438 32.203125 -8.195312 32.203125 -7.28125 Z M 32.203125 -7.28125 "/></g></g></g><path stroke-linecap="butt" transform="matrix(0.75, 0, 0, 0.75, 87.930102, 158.63788)" fill="none" stroke-linejoin="miter" d="M 34.832783 54.915122 C 33.4682 55.399497 32.087991 55.70158 30.697366 55.821372 C 29.317158 55.941164 28.332783 55.998455 27.739033 55.998455 L 15.473407 55.998455 C 13.535907 55.998455 11.530698 55.566164 9.447365 54.696372 C 7.379656 53.821372 5.785906 52.597413 4.671323 51.024497 C 3.900489 49.909913 3.317156 48.649497 2.921323 47.248455 C 2.530698 45.831788 2.275489 44.45158 2.155698 43.113038 C 2.035906 41.769288 1.978614 40.665121 1.978614 39.795329 L 1.978614 10.576577 C 1.978614 10.243244 2.098406 10.076577 2.332781 10.076577 L 19.270282 10.076577 C 19.520282 10.076577 19.645282 10.243244 19.645282 10.576577 C 19.645282 13.264078 19.645282 15.941161 19.645282 18.618245 C 19.645282 19.295328 19.645282 20.305745 19.645282 21.649495 C 19.645282 22.97762 19.634865 24.399495 19.608824 25.909912 C 19.58799 27.41512 19.58799 28.795329 19.608824 30.045329 C 19.634865 31.279704 19.671324 32.139079 19.718199 32.628662 C 19.765074 33.649496 19.858824 34.659912 20.004657 35.659912 C 20.155699 36.659912 20.447365 37.352621 20.874449 37.743246 C 21.364032 38.185954 21.848407 38.331788 22.337991 38.191163 C 22.822366 38.034913 23.171324 37.863038 23.369241 37.675537 C 23.905699 36.935954 24.171324 36.055746 24.171324 35.034912 C 24.171324 34.014079 24.197366 33.019287 24.244241 32.055745 C 24.244241 31.57137 24.254657 30.654704 24.280699 29.310954 C 24.306741 27.967204 24.317157 26.482828 24.317157 24.857828 C 24.317157 23.22762 24.317157 21.680745 24.317157 20.222411 C 24.317157 18.75887 24.337991 17.644286 24.390074 16.868244 C 24.390074 15.790119 24.390074 14.722411 24.390074 13.680744 C 24.390074 12.633869 24.364032 11.597411 24.317157 10.576577 C 24.317157 10.243244 24.436949 10.076577 24.671324 10.076577 L 42.572367 10.076577 C 42.806742 10.076577 42.926534 10.243244 42.926534 10.576577 L 42.926534 38.331788 C 42.926534 40.331788 42.822367 42.435954 42.608825 44.644288 C 42.395284 46.852621 41.676534 48.743247 40.447367 50.310955 C 39.629658 51.336997 38.754658 52.248455 37.827575 53.060955 C 36.900492 53.852622 35.9057 54.472414 34.832783 54.915122 Z M 34.832783 54.915122 " stroke="#000000" stroke-width="5.476785" stroke-opacity="1" stroke-miterlimit="4"/><g fill="#ffffff" fill-opacity="1"><g transform="translate(87.930102, 200.637877)"><g><path d="M 26.125 -0.828125 C 25.101562 -0.460938 24.070312 -0.234375 23.03125 -0.140625 C 21.988281 -0.046875 21.25 0 20.8125 0 L 11.609375 0 C 10.148438 0 8.644531 -0.328125 7.09375 -0.984375 C 5.539062 -1.640625 4.34375 -2.550781 3.5 -3.71875 C 2.914062 -4.5625 2.476562 -5.507812 2.1875 -6.5625 C 1.894531 -7.625 1.703125 -8.65625 1.609375 -9.65625 C 1.523438 -10.664062 1.484375 -11.5 1.484375 -12.15625 L 1.484375 -34.0625 C 1.484375 -34.320312 1.570312 -34.453125 1.75 -34.453125 L 14.453125 -34.453125 C 14.640625 -34.453125 14.734375 -34.320312 14.734375 -34.0625 C 14.734375 -32.050781 14.734375 -30.046875 14.734375 -28.046875 C 14.734375 -27.523438 14.734375 -26.765625 14.734375 -25.765625 C 14.734375 -24.765625 14.722656 -23.695312 14.703125 -22.5625 C 14.679688 -21.425781 14.679688 -20.394531 14.703125 -19.46875 C 14.722656 -18.539062 14.75 -17.894531 14.78125 -17.53125 C 14.820312 -16.757812 14.894531 -16 15 -15.25 C 15.113281 -14.5 15.332031 -13.976562 15.65625 -13.6875 C 16.019531 -13.363281 16.382812 -13.253906 16.75 -13.359375 C 17.125 -13.472656 17.382812 -13.601562 17.53125 -13.75 C 17.925781 -14.289062 18.125 -14.945312 18.125 -15.71875 C 18.125 -16.488281 18.144531 -17.238281 18.1875 -17.96875 C 18.1875 -18.332031 18.191406 -19.015625 18.203125 -20.015625 C 18.222656 -21.015625 18.234375 -22.125 18.234375 -23.34375 C 18.234375 -24.570312 18.234375 -25.734375 18.234375 -26.828125 C 18.234375 -27.929688 18.253906 -28.773438 18.296875 -29.359375 C 18.296875 -30.160156 18.296875 -30.953125 18.296875 -31.734375 C 18.296875 -32.523438 18.273438 -33.300781 18.234375 -34.0625 C 18.234375 -34.320312 18.328125 -34.453125 18.515625 -34.453125 L 31.921875 -34.453125 C 32.109375 -34.453125 32.203125 -34.320312 32.203125 -34.0625 L 32.203125 -13.25 C 32.203125 -11.757812 32.117188 -10.179688 31.953125 -8.515625 C 31.785156 -6.859375 31.25 -5.441406 30.34375 -4.265625 C 29.71875 -3.503906 29.054688 -2.820312 28.359375 -2.21875 C 27.671875 -1.613281 26.925781 -1.148438 26.125 -0.828125 Z M 26.125 -0.828125 "/></g></g></g><path stroke-linecap="butt" transform="matrix(0.75, 0, 0, 0.75, 56.457085, 157.544169)" fill="none" stroke-linejoin="miter" d="M 42.854098 41.024444 L 42.854098 45.857778 C 42.854098 47.25882 42.578056 48.472361 42.020765 49.493195 C 41.458265 50.514028 40.984306 51.269237 40.593681 51.75882 C 39.916598 52.639028 39.16139 53.305695 38.328056 53.769237 C 37.510348 54.232778 36.927014 54.586945 36.583264 54.82132 C 35.557223 55.41507 34.458264 55.764029 33.281181 55.857779 C 32.119722 55.951529 31.369722 55.998404 31.036389 55.998404 L 2.406179 55.998404 C 2.015554 55.998404 1.843679 55.805695 1.890554 55.409862 C 1.99472 54.685903 2.098887 53.451528 2.192637 51.701528 C 2.286387 49.94632 2.348887 48.00882 2.36972 45.894236 C 2.395762 43.774444 2.416595 41.779653 2.442637 39.904652 C 2.468679 38.024444 2.453054 36.597361 2.406179 35.623402 C 2.359304 34.696319 2.312429 33.336944 2.265554 31.540069 C 2.218679 29.732777 2.18222 27.862985 2.156179 25.925485 C 2.135345 23.977568 2.109304 22.22236 2.083262 20.665068 C 2.062429 19.097359 2.052012 18.076526 2.052012 17.602568 C 2.052012 16.909859 2.062429 16.029651 2.083262 14.961943 C 2.109304 13.894234 2.11972 12.920276 2.11972 12.040067 C 2.11972 11.159859 2.11972 10.670276 2.11972 10.576526 C 2.11972 10.243192 2.286387 10.076526 2.61972 10.076526 L 31.249931 10.076526 C 32.322847 10.076526 33.510347 10.201526 34.817639 10.451526 C 36.135348 10.691109 37.140556 11.050484 37.828056 11.540067 C 38.411389 11.920276 39.052015 12.430692 39.75514 13.071317 C 40.468681 13.701526 41.06764 14.628609 41.557223 15.852568 C 42.041598 17.066109 42.28639 18.743193 42.28639 20.87861 C 42.28639 22.53486 42.06764 23.831735 41.624931 24.78486 C 41.187431 25.737985 40.697848 26.59736 40.166598 27.368193 C 39.583265 28.154652 38.947848 28.764027 38.255139 29.206735 C 37.578056 29.644235 36.927014 30.029652 36.296806 30.362985 C 35.854098 30.56611 35.536389 30.81611 35.333264 31.112985 C 35.145764 31.399444 35.364514 31.711944 35.994723 32.055694 C 36.572848 32.389027 37.229098 32.65986 37.953056 32.857777 C 38.692639 33.050485 39.520765 33.586944 40.447848 34.467152 C 41.234306 35.284861 41.828056 36.206736 42.234306 37.227569 C 42.650973 38.248402 42.854098 39.514027 42.854098 41.024444 Z M 22.854097 47.889028 C 23.43743 47.16507 23.692638 46.362986 23.619722 45.482778 C 23.552013 44.602569 23.515555 43.753611 23.515555 42.930694 C 23.46868 42.055694 23.390555 41.102569 23.28118 40.081736 C 23.18743 39.055694 22.708263 38.279652 21.838472 37.743194 C 21.447847 37.446319 21.03118 37.352569 20.588472 37.461944 C 20.057222 37.461944 19.786388 37.800486 19.786388 38.477569 C 19.833263 39.055694 19.833263 39.873402 19.786388 40.920278 C 19.739513 41.961944 19.692638 43.040069 19.645763 44.144236 C 19.598888 45.237986 19.598888 46.201528 19.645763 47.034861 C 19.692638 47.85257 19.833263 48.331736 20.072847 48.47757 C 20.56243 48.82132 21.057222 48.909861 21.572847 48.743195 C 22.083263 48.566111 22.510347 48.279653 22.854097 47.889028 Z M 21.838472 28.97236 C 22.953055 28.545277 23.583263 27.764027 23.729097 26.623402 C 23.869722 25.467152 23.942639 24.430693 23.942639 23.50361 C 23.895764 22.576526 23.833264 21.675485 23.765555 20.810901 C 23.692638 19.930693 23.317638 19.097359 22.640555 18.310901 C 22.104097 17.732776 21.494722 17.612984 20.802013 17.956734 C 20.364513 18.196318 20.145763 18.534859 20.145763 18.972359 C 20.203055 20.732776 20.192638 22.295276 20.109305 23.65986 C 20.036388 25.014027 19.953055 26.571318 19.859305 28.331735 C 19.859305 28.711943 20.09368 28.956735 20.557222 29.060902 C 21.020763 29.15986 21.447847 29.12861 21.838472 28.97236 Z M 21.838472 28.97236 " stroke="#000000" stroke-width="5.4768" stroke-opacity="1" stroke-miterlimit="4"/><g fill="#ff3131" fill-opacity="1"><g transform="translate(56.457085, 199.544166)"><g><path d="M 32.140625 -11.234375 L 32.140625 -7.609375 C 32.140625 -6.554688 31.929688 -5.644531 31.515625 -4.875 C 31.097656 -4.101562 30.742188 -3.535156 30.453125 -3.171875 C 29.941406 -2.515625 29.375 -2.015625 28.75 -1.671875 C 28.132812 -1.328125 27.695312 -1.0625 27.4375 -0.875 C 26.664062 -0.4375 25.84375 -0.179688 24.96875 -0.109375 C 24.09375 -0.0351562 23.53125 0 23.28125 0 L 1.8125 0 C 1.519531 0 1.390625 -0.144531 1.421875 -0.4375 C 1.492188 -0.988281 1.566406 -1.921875 1.640625 -3.234375 C 1.710938 -4.546875 1.757812 -5.992188 1.78125 -7.578125 C 1.800781 -9.171875 1.816406 -10.671875 1.828125 -12.078125 C 1.847656 -13.484375 1.84375 -14.550781 1.8125 -15.28125 C 1.769531 -15.96875 1.726562 -16.988281 1.6875 -18.34375 C 1.65625 -19.695312 1.628906 -21.101562 1.609375 -22.5625 C 1.597656 -24.019531 1.582031 -25.332031 1.5625 -26.5 C 1.539062 -27.675781 1.53125 -28.445312 1.53125 -28.8125 C 1.53125 -29.320312 1.539062 -29.976562 1.5625 -30.78125 C 1.582031 -31.582031 1.59375 -32.3125 1.59375 -32.96875 C 1.59375 -33.625 1.59375 -33.988281 1.59375 -34.0625 C 1.59375 -34.320312 1.71875 -34.453125 1.96875 -34.453125 L 23.4375 -34.453125 C 24.238281 -34.453125 25.132812 -34.359375 26.125 -34.171875 C 27.113281 -33.992188 27.863281 -33.722656 28.375 -33.359375 C 28.8125 -33.066406 29.289062 -32.679688 29.8125 -32.203125 C 30.34375 -31.722656 30.789062 -31.023438 31.15625 -30.109375 C 31.519531 -29.203125 31.703125 -27.945312 31.703125 -26.34375 C 31.703125 -25.101562 31.535156 -24.125 31.203125 -23.40625 C 30.878906 -22.695312 30.519531 -22.050781 30.125 -21.46875 C 29.6875 -20.882812 29.210938 -20.425781 28.703125 -20.09375 C 28.191406 -19.769531 27.695312 -19.476562 27.21875 -19.21875 C 26.882812 -19.070312 26.644531 -18.890625 26.5 -18.671875 C 26.351562 -18.453125 26.519531 -18.21875 27 -17.96875 C 27.4375 -17.707031 27.925781 -17.503906 28.46875 -17.359375 C 29.019531 -17.210938 29.644531 -16.8125 30.34375 -16.15625 C 30.925781 -15.53125 31.367188 -14.832031 31.671875 -14.0625 C 31.984375 -13.300781 32.140625 -12.359375 32.140625 -11.234375 Z M 17.140625 -6.078125 C 17.578125 -6.628906 17.769531 -7.234375 17.71875 -7.890625 C 17.664062 -8.546875 17.640625 -9.179688 17.640625 -9.796875 C 17.597656 -10.453125 17.539062 -11.164062 17.46875 -11.9375 C 17.394531 -12.707031 17.03125 -13.289062 16.375 -13.6875 C 16.082031 -13.90625 15.769531 -13.976562 15.4375 -13.90625 C 15.039062 -13.90625 14.84375 -13.648438 14.84375 -13.140625 C 14.875 -12.703125 14.867188 -12.085938 14.828125 -11.296875 C 14.796875 -10.515625 14.757812 -9.710938 14.71875 -8.890625 C 14.6875 -8.078125 14.6875 -7.359375 14.71875 -6.734375 C 14.757812 -6.117188 14.875 -5.753906 15.0625 -5.640625 C 15.425781 -5.378906 15.800781 -5.3125 16.1875 -5.4375 C 16.570312 -5.570312 16.890625 -5.785156 17.140625 -6.078125 Z M 16.375 -20.265625 C 17.21875 -20.585938 17.691406 -21.175781 17.796875 -22.03125 C 17.910156 -22.894531 17.96875 -23.675781 17.96875 -24.375 C 17.925781 -25.0625 17.878906 -25.734375 17.828125 -26.390625 C 17.773438 -27.054688 17.492188 -27.679688 16.984375 -28.265625 C 16.578125 -28.703125 16.117188 -28.789062 15.609375 -28.53125 C 15.273438 -28.351562 15.109375 -28.097656 15.109375 -27.765625 C 15.148438 -26.453125 15.140625 -25.285156 15.078125 -24.265625 C 15.023438 -23.242188 14.960938 -22.070312 14.890625 -20.75 C 14.890625 -20.457031 15.0625 -20.273438 15.40625 -20.203125 C 15.757812 -20.128906 16.082031 -20.148438 16.375 -20.265625 Z M 16.375 -20.265625 "/></g></g></g><path stroke-linecap="butt" transform="matrix(0.75, 0, 0, 0.75, 97.657572, 211.333976)" fill="none" stroke-linejoin="miter" d="M 89.560743 12.997408 L 87.951367 12.997408 L 87.951367 4.117199 L 90.248243 4.117199 L 92.493034 10.64845 L 92.623243 10.64845 L 94.857618 4.117199 L 97.097201 4.117199 L 97.097201 12.997408 L 95.435743 12.997408 L 95.435743 7.132825 L 95.284701 7.106783 L 93.227409 12.997408 L 91.763868 12.997408 L 89.711784 7.106783 L 89.560743 7.132825 Z M 107.326369 9.101575 L 107.326369 11.528658 L 111.565952 11.528658 L 111.565952 12.997408 L 105.57116 12.997408 L 105.57116 4.117199 L 111.466994 4.117199 L 111.466994 5.591158 L 107.326369 5.591158 L 107.326369 7.669283 L 110.946161 7.669283 L 110.946161 9.101575 Z M 122.560745 4.117199 C 124.003453 4.117199 125.102412 4.492199 125.862828 5.236991 C 126.623245 5.981783 127.003453 7.091158 127.003453 8.559908 C 127.003453 10.02345 126.623245 11.132825 125.862828 11.877616 C 125.102412 12.627617 124.003453 12.997408 122.560745 12.997408 L 119.368036 12.997408 L 119.368036 4.117199 Z M 122.456578 11.52345 C 123.373245 11.52345 124.055536 11.289075 124.508662 10.820325 C 124.961787 10.356783 125.190953 9.601575 125.190953 8.559908 C 125.190953 7.518241 124.961787 6.763033 124.508662 6.299491 C 124.055536 5.830741 123.373245 5.596366 122.456578 5.596366 L 121.123245 5.596366 L 121.123245 11.52345 Z M 136.774287 12.997408 L 135.019079 12.997408 L 135.019079 4.117199 L 136.774287 4.117199 Z M 152.618038 12.997408 L 150.76908 12.997408 L 150.102413 10.950533 L 146.701371 10.950533 L 146.029496 12.997408 L 144.227413 12.997408 L 147.295121 4.117199 L 149.55033 4.117199 Z M 148.315955 5.971366 L 147.17533 9.476575 L 149.61283 9.476575 L 148.466996 5.971366 Z M 148.315955 5.971366 " stroke="#222222" stroke-width="0.435596" stroke-opacity="1" stroke-miterlimit="4"/><g fill="#ffffff" fill-opacity="1"><g transform="translate(162.755224, 221.083975)"><g><path d="M 2.078125 0 L 0.859375 0 L 0.859375 -6.65625 L 2.59375 -6.65625 L 4.265625 -1.765625 L 4.375 -1.765625 L 6.046875 -6.65625 L 7.71875 -6.65625 L 7.71875 0 L 6.484375 0 L 6.484375 -4.40625 L 6.359375 -4.421875 L 4.828125 0 L 3.71875 0 L 2.1875 -4.421875 L 2.078125 -4.40625 Z M 2.078125 0 "/></g></g></g><g fill="#ffffff" fill-opacity="1"><g transform="translate(175.970463, 221.083975)"><g><path d="M 2.1875 -2.921875 L 2.1875 -1.109375 L 5.359375 -1.109375 L 5.359375 0 L 0.859375 0 L 0.859375 -6.65625 L 5.28125 -6.65625 L 5.28125 -5.5625 L 2.1875 -5.5625 L 2.1875 -4 L 4.890625 -4 L 4.890625 -2.921875 Z M 2.1875 -2.921875 "/></g></g></g><g fill="#ffffff" fill-opacity="1"><g transform="translate(186.31621, 221.083975)"><g><path d="M 3.265625 -6.65625 C 4.335938 -6.65625 5.160156 -6.375 5.734375 -5.8125 C 6.304688 -5.257812 6.59375 -4.429688 6.59375 -3.328125 C 6.59375 -2.234375 6.304688 -1.40625 5.734375 -0.84375 C 5.160156 -0.28125 4.335938 0 3.265625 0 L 0.859375 0 L 0.859375 -6.65625 Z M 3.1875 -1.109375 C 3.875 -1.109375 4.382812 -1.28125 4.71875 -1.625 C 5.0625 -1.976562 5.234375 -2.546875 5.234375 -3.328125 C 5.234375 -4.109375 5.0625 -4.671875 4.71875 -5.015625 C 4.382812 -5.367188 3.875 -5.546875 3.1875 -5.546875 L 2.1875 -5.546875 L 2.1875 -1.109375 Z M 3.1875 -1.109375 "/></g></g></g><g fill="#ffffff" fill-opacity="1"><g transform="translate(198.05571, 221.083975)"><g><path d="M 2.1875 0 L 0.859375 0 L 0.859375 -6.65625 L 2.1875 -6.65625 Z M 2.1875 0 "/></g></g></g><g fill="#ffffff" fill-opacity="1"><g transform="translate(205.72782, 221.083975)"><g><path d="M 6.390625 0 L 5 0 L 4.5 -1.53125 L 1.953125 -1.53125 L 1.453125 0 L 0.09375 0 L 2.40625 -6.65625 L 4.09375 -6.65625 Z M 3.171875 -5.265625 L 2.3125 -2.640625 L 4.140625 -2.640625 L 3.28125 -5.265625 Z M 3.171875 -5.265625 "/></g></g></g></svg>