<svg xmlns="http://www.w3.org/2000/svg" xmlns:xlink="http://www.w3.org/1999/xlink" width="500" zoomAndPan="magnify" viewBox="0 0 375 374.999991" height="500" preserveAspectRatio="xMidYMid meet" version="1.0"><defs><g></g></defs><g fill="#ff3131" fill-opacity="1"><g transform="translate(49.399142, 181.887482)"><g><path d="M 17.859375 -41.140625 C 19.273438 -41.097656 20.722656 -40.796875 22.203125 -40.234375 C 23.679688 -39.679688 25.046875 -38.941406 26.296875 -38.015625 C 27.546875 -37.097656 28.550781 -36.015625 29.3125 -34.765625 C 30.082031 -33.515625 30.46875 -32.140625 30.46875 -30.640625 C 30.46875 -29.265625 30.140625 -27.875 29.484375 -26.46875 C 28.835938 -25.070312 28.023438 -23.738281 27.046875 -22.46875 C 26.066406 -21.195312 25.097656 -20.046875 24.140625 -19.015625 C 23.441406 -18.285156 23.09375 -17.59375 23.09375 -16.9375 C 23.09375 -16.4375 23.410156 -15.800781 24.046875 -15.03125 C 24.679688 -14.269531 25.457031 -13.445312 26.375 -12.5625 C 27.300781 -11.675781 28.222656 -10.78125 29.140625 -9.875 C 30.066406 -8.976562 30.847656 -8.125 31.484375 -7.3125 C 32.117188 -6.507812 32.4375 -5.78125 32.4375 -5.125 C 32.4375 -4.28125 31.984375 -3.597656 31.078125 -3.078125 C 30.171875 -2.554688 29.015625 -2.132812 27.609375 -1.8125 C 26.210938 -1.488281 24.796875 -1.21875 23.359375 -1 C 21.921875 -0.789062 20.644531 -0.59375 19.53125 -0.40625 C 18.457031 -0.207031 17.363281 -0.0703125 16.25 0 C 15.132812 0.0703125 14 0.265625 12.84375 0.578125 C 12.570312 0.617188 12.320312 0.664062 12.09375 0.71875 C 11.863281 0.78125 11.632812 0.8125 11.40625 0.8125 C 11.21875 0.8125 10.84375 0.644531 10.28125 0.3125 C 9.726562 -0.0078125 9.207031 -0.421875 8.71875 -0.921875 C 8.238281 -1.421875 8 -1.921875 8 -2.421875 C 8 -3.078125 8.25 -3.632812 8.75 -4.09375 C 9.25 -4.550781 9.882812 -4.929688 10.65625 -5.234375 C 11.425781 -5.546875 12.191406 -5.78125 12.953125 -5.9375 C 13.722656 -6.09375 14.359375 -6.171875 14.859375 -6.171875 C 15.242188 -6.171875 15.640625 -6.117188 16.046875 -6.015625 C 16.453125 -5.921875 16.84375 -5.875 17.21875 -5.875 C 18.03125 -5.875 18.816406 -6.082031 19.578125 -6.5 C 20.347656 -6.925781 20.734375 -7.410156 20.734375 -7.953125 C 20.734375 -8.367188 20.53125 -8.804688 20.125 -9.265625 C 19.726562 -9.734375 19.25 -10.1875 18.6875 -10.625 C 18.132812 -11.070312 17.625 -11.425781 17.15625 -11.6875 C 16.695312 -11.957031 16.394531 -12.09375 16.25 -12.09375 C 15.820312 -12.09375 15.453125 -11.867188 15.140625 -11.421875 C 14.835938 -10.984375 14.523438 -10.488281 14.203125 -9.9375 C 13.878906 -9.382812 13.484375 -8.882812 13.015625 -8.4375 C 12.554688 -8 11.960938 -7.78125 11.234375 -7.78125 C 9.816406 -7.78125 8.722656 -8.257812 7.953125 -9.21875 C 7.179688 -10.175781 6.628906 -11.441406 6.296875 -13.015625 C 5.972656 -14.585938 5.765625 -16.304688 5.671875 -18.171875 C 5.578125 -20.035156 5.472656 -21.890625 5.359375 -23.734375 C 5.242188 -25.578125 4.992188 -27.207031 4.609375 -28.625 C 4.335938 -29.664062 4.078125 -30.816406 3.828125 -32.078125 C 3.578125 -33.347656 3.453125 -34.332031 3.453125 -35.03125 C 3.453125 -36.21875 3.953125 -37.191406 4.953125 -37.953125 C 5.953125 -38.722656 7.207031 -39.328125 8.71875 -39.765625 C 10.238281 -40.210938 11.816406 -40.539062 13.453125 -40.75 C 15.085938 -40.96875 16.554688 -41.097656 17.859375 -41.140625 Z M 22.46875 -30.125 C 22.46875 -30.238281 22.46875 -30.351562 22.46875 -30.46875 C 22.46875 -30.582031 22.46875 -30.679688 22.46875 -30.765625 C 22.46875 -32.296875 21.945312 -33.347656 20.90625 -33.921875 C 19.875 -34.503906 18.515625 -34.796875 16.828125 -34.796875 C 15.484375 -34.796875 14.328125 -34.570312 13.359375 -34.125 C 12.398438 -33.6875 11.921875 -33.125 11.921875 -32.4375 C 12.347656 -31.507812 12.632812 -30.375 12.78125 -29.03125 C 12.9375 -27.6875 13.070312 -26.351562 13.1875 -25.03125 C 13.300781 -23.707031 13.484375 -22.59375 13.734375 -21.6875 C 13.984375 -20.789062 14.414062 -20.34375 15.03125 -20.34375 C 15.34375 -20.34375 15.726562 -20.457031 16.1875 -20.6875 C 17.914062 -21.800781 19.25 -23.179688 20.1875 -24.828125 C 21.132812 -26.484375 21.894531 -28.25 22.46875 -30.125 Z M 22.46875 -30.125 " data-index="0"></path></g></g></g><g fill="#ff3131" fill-opacity="1"><g transform="translate(82.978533, 181.887482)"><g><path d="M 8.296875 -39.6875 C 9.828125 -39.6875 11.015625 -39.332031 11.859375 -38.625 C 12.710938 -37.914062 13.140625 -37.023438 13.140625 -35.953125 C 13.140625 -34.992188 13.050781 -33.90625 12.875 -32.6875 C 12.695312 -31.476562 12.519531 -30.304688 12.34375 -29.171875 C 12.175781 -28.046875 12.09375 -27.078125 12.09375 -26.265625 C 12.09375 -26.117188 12.101562 -25.582031 12.125 -24.65625 C 12.144531 -23.738281 12.210938 -22.601562 12.328125 -21.25 C 12.441406 -19.90625 12.640625 -18.484375 12.921875 -16.984375 C 13.210938 -15.492188 13.628906 -14.101562 14.171875 -12.8125 C 14.710938 -11.53125 15.429688 -10.472656 16.328125 -9.640625 C 17.234375 -8.816406 18.335938 -8.40625 19.640625 -8.40625 C 21.179688 -8.40625 22.398438 -8.804688 23.296875 -9.609375 C 24.203125 -10.421875 24.851562 -11.429688 25.25 -12.640625 C 25.65625 -13.847656 25.859375 -15.050781 25.859375 -16.25 C 25.859375 -18.125 25.640625 -19.960938 25.203125 -21.765625 C 24.765625 -23.578125 24.351562 -25.382812 23.96875 -27.1875 C 23.695312 -28.613281 23.484375 -29.957031 23.328125 -31.21875 C 23.171875 -32.488281 23.035156 -33.832031 22.921875 -35.25 C 23.234375 -36.519531 23.769531 -37.476562 24.53125 -38.125 C 25.300781 -38.78125 26.113281 -39.109375 26.96875 -39.109375 C 27.769531 -39.109375 28.546875 -38.820312 29.296875 -38.25 C 30.046875 -37.675781 30.59375 -36.773438 30.9375 -35.546875 C 31.125 -33.472656 31.445312 -31.40625 31.90625 -29.34375 C 32.375 -27.289062 32.816406 -25.238281 33.234375 -23.1875 C 33.660156 -21.132812 33.875 -19.03125 33.875 -16.875 C 33.875 -13.726562 33.296875 -10.914062 32.140625 -8.4375 C 30.992188 -5.957031 29.398438 -4.003906 27.359375 -2.578125 C 25.328125 -1.160156 23.003906 -0.453125 20.390625 -0.453125 C 17.585938 -0.453125 15.160156 -1.085938 13.109375 -2.359375 C 11.054688 -3.628906 9.351562 -5.3125 8 -7.40625 C 6.65625 -9.5 5.65625 -11.8125 5 -14.34375 C 4.351562 -16.875 4.03125 -19.390625 4.03125 -21.890625 C 4.03125 -23.921875 4.054688 -25.722656 4.109375 -27.296875 C 4.171875 -28.878906 4.222656 -30.570312 4.265625 -32.375 C 4.304688 -33.53125 4.382812 -34.585938 4.5 -35.546875 C 4.613281 -36.503906 4.9375 -37.335938 5.46875 -38.046875 C 6.007812 -38.753906 6.953125 -39.300781 8.296875 -39.6875 Z M 8.296875 -39.6875 " data-index="1"></path></g></g></g><g fill="#ff3131" fill-opacity="1"><g transform="translate(119.725793, 181.887482)"><g><path d="M 3.046875 -29.953125 C 1.628906 -30.148438 0.578125 -30.640625 -0.109375 -31.421875 C -0.804688 -32.210938 -1.15625 -33.066406 -1.15625 -33.984375 C -1.15625 -34.910156 -0.78125 -35.796875 -0.03125 -36.640625 C 0.71875 -37.484375 1.84375 -37.925781 3.34375 -37.96875 C 3.570312 -37.925781 3.828125 -37.894531 4.109375 -37.875 C 4.398438 -37.851562 4.738281 -37.84375 5.125 -37.84375 C 6.582031 -37.84375 8.453125 -37.9375 10.734375 -38.125 C 13.023438 -38.320312 15.320312 -38.421875 17.625 -38.421875 C 19.625 -38.421875 21.488281 -38.273438 23.21875 -37.984375 C 24.945312 -37.703125 26.347656 -37.15625 27.421875 -36.34375 C 28.492188 -35.539062 29.03125 -34.351562 29.03125 -32.78125 C 29.03125 -31.125 28.625 -29.429688 27.8125 -27.703125 C 27.007812 -25.984375 25.960938 -24.226562 24.671875 -22.4375 C 23.390625 -20.65625 22.019531 -18.800781 20.5625 -16.875 C 19.101562 -14.957031 17.703125 -12.960938 16.359375 -10.890625 C 15.972656 -10.316406 15.585938 -9.78125 15.203125 -9.28125 C 14.816406 -8.78125 14.625 -8.375 14.625 -8.0625 C 14.625 -7.675781 14.972656 -7.484375 15.671875 -7.484375 C 15.742188 -7.484375 15.835938 -7.492188 15.953125 -7.515625 C 16.066406 -7.535156 16.179688 -7.546875 16.296875 -7.546875 C 18.722656 -7.703125 20.882812 -7.796875 22.78125 -7.828125 C 24.6875 -7.867188 26.519531 -7.910156 28.28125 -7.953125 C 29.507812 -7.609375 30.410156 -7.0625 30.984375 -6.3125 C 31.566406 -5.5625 31.859375 -4.78125 31.859375 -3.96875 C 31.859375 -3.125 31.53125 -2.316406 30.875 -1.546875 C 30.226562 -0.785156 29.269531 -0.25 28 0.0625 C 25.65625 0.09375 23.320312 0.1875 21 0.34375 C 18.675781 0.5 16.34375 0.578125 14 0.578125 C 12.8125 0.578125 11.582031 0.554688 10.3125 0.515625 C 9.039062 0.472656 7.867188 0.316406 6.796875 0.046875 C 5.722656 -0.210938 4.859375 -0.640625 4.203125 -1.234375 C 3.546875 -1.828125 3.21875 -2.664062 3.21875 -3.75 C 3.21875 -4.75 3.582031 -6.003906 4.3125 -7.515625 C 5.050781 -9.035156 5.992188 -10.695312 7.140625 -12.5 C 8.296875 -14.300781 9.554688 -16.132812 10.921875 -18 C 12.285156 -19.863281 13.597656 -21.660156 14.859375 -23.390625 C 16.128906 -25.117188 17.222656 -26.675781 18.140625 -28.0625 C 18.453125 -28.550781 18.742188 -28.945312 19.015625 -29.25 C 19.285156 -29.5625 19.421875 -29.796875 19.421875 -29.953125 C 19.421875 -30.179688 18.863281 -30.296875 17.75 -30.296875 C 15.519531 -30.296875 13.0625 -30.25 10.375 -30.15625 C 7.6875 -30.0625 5.242188 -29.992188 3.046875 -29.953125 Z M 3.046875 -29.953125 " data-index="2"></path></g></g></g><g fill="#ff3131" fill-opacity="1"><g transform="translate(151.577237, 181.887482)"><g><path d="M 3.046875 -29.953125 C 1.628906 -30.148438 0.578125 -30.640625 -0.109375 -31.421875 C -0.804688 -32.210938 -1.15625 -33.066406 -1.15625 -33.984375 C -1.15625 -34.910156 -0.78125 -35.796875 -0.03125 -36.640625 C 0.71875 -37.484375 1.84375 -37.925781 3.34375 -37.96875 C 3.570312 -37.925781 3.828125 -37.894531 4.109375 -37.875 C 4.398438 -37.851562 4.738281 -37.84375 5.125 -37.84375 C 6.582031 -37.84375 8.453125 -37.9375 10.734375 -38.125 C 13.023438 -38.320312 15.320312 -38.421875 17.625 -38.421875 C 19.625 -38.421875 21.488281 -38.273438 23.21875 -37.984375 C 24.945312 -37.703125 26.347656 -37.15625 27.421875 -36.34375 C 28.492188 -35.539062 29.03125 -34.351562 29.03125 -32.78125 C 29.03125 -31.125 28.625 -29.429688 27.8125 -27.703125 C 27.007812 -25.984375 25.960938 -24.226562 24.671875 -22.4375 C 23.390625 -20.65625 22.019531 -18.800781 20.5625 -16.875 C 19.101562 -14.957031 17.703125 -12.960938 16.359375 -10.890625 C 15.972656 -10.316406 15.585938 -9.78125 15.203125 -9.28125 C 14.816406 -8.78125 14.625 -8.375 14.625 -8.0625 C 14.625 -7.675781 14.972656 -7.484375 15.671875 -7.484375 C 15.742188 -7.484375 15.835938 -7.492188 15.953125 -7.515625 C 16.066406 -7.535156 16.179688 -7.546875 16.296875 -7.546875 C 18.722656 -7.703125 20.882812 -7.796875 22.78125 -7.828125 C 24.6875 -7.867188 26.519531 -7.910156 28.28125 -7.953125 C 29.507812 -7.609375 30.410156 -7.0625 30.984375 -6.3125 C 31.566406 -5.5625 31.859375 -4.78125 31.859375 -3.96875 C 31.859375 -3.125 31.53125 -2.316406 30.875 -1.546875 C 30.226562 -0.785156 29.269531 -0.25 28 0.0625 C 25.65625 0.09375 23.320312 0.1875 21 0.34375 C 18.675781 0.5 16.34375 0.578125 14 0.578125 C 12.8125 0.578125 11.582031 0.554688 10.3125 0.515625 C 9.039062 0.472656 7.867188 0.316406 6.796875 0.046875 C 5.722656 -0.210938 4.859375 -0.640625 4.203125 -1.234375 C 3.546875 -1.828125 3.21875 -2.664062 3.21875 -3.75 C 3.21875 -4.75 3.582031 -6.003906 4.3125 -7.515625 C 5.050781 -9.035156 5.992188 -10.695312 7.140625 -12.5 C 8.296875 -14.300781 9.554688 -16.132812 10.921875 -18 C 12.285156 -19.863281 13.597656 -21.660156 14.859375 -23.390625 C 16.128906 -25.117188 17.222656 -26.675781 18.140625 -28.0625 C 18.453125 -28.550781 18.742188 -28.945312 19.015625 -29.25 C 19.285156 -29.5625 19.421875 -29.796875 19.421875 -29.953125 C 19.421875 -30.179688 18.863281 -30.296875 17.75 -30.296875 C 15.519531 -30.296875 13.0625 -30.25 10.375 -30.15625 C 7.6875 -30.0625 5.242188 -29.992188 3.046875 -29.953125 Z M 3.046875 -29.953125 " data-index="3"></path></g></g></g><g fill="#ff3131" fill-opacity="1"><g transform="translate(183.428708, 181.887482)"><g><path d="M 13.71875 -2.65625 C 13.289062 -1.570312 12.703125 -0.769531 11.953125 -0.25 C 11.203125 0.257812 10.441406 0.515625 9.671875 0.515625 C 8.710938 0.515625 7.835938 0.148438 7.046875 -0.578125 C 6.265625 -1.304688 5.875 -2.304688 5.875 -3.578125 C 5.875 -4.609375 5.988281 -5.695312 6.21875 -6.84375 C 6.445312 -8 6.5625 -9.132812 6.5625 -10.25 C 6.5625 -12.632812 6.398438 -14.875 6.078125 -16.96875 C 5.753906 -19.0625 5.425781 -21.171875 5.09375 -23.296875 C 4.769531 -25.429688 4.609375 -27.75 4.609375 -30.25 C 4.609375 -31.09375 4.679688 -32.019531 4.828125 -33.03125 C 4.984375 -34.050781 5.265625 -35.03125 5.671875 -35.96875 C 6.078125 -36.914062 6.632812 -37.6875 7.34375 -38.28125 C 8.050781 -38.875 8.945312 -39.171875 10.03125 -39.171875 C 11.257812 -39.171875 12.285156 -38.796875 13.109375 -38.046875 C 13.929688 -37.296875 14.648438 -36.394531 15.265625 -35.34375 C 15.878906 -34.289062 16.457031 -33.300781 17 -32.375 C 18.257812 -30.257812 19.347656 -28.203125 20.265625 -26.203125 C 21.191406 -24.210938 22.085938 -22.207031 22.953125 -20.1875 C 23.816406 -18.175781 24.785156 -16.09375 25.859375 -13.9375 C 26.054688 -13.519531 26.238281 -13.222656 26.40625 -13.046875 C 26.582031 -12.878906 26.691406 -12.796875 26.734375 -12.796875 C 26.847656 -12.796875 26.90625 -12.945312 26.90625 -13.25 C 26.90625 -13.40625 26.894531 -13.550781 26.875 -13.6875 C 26.851562 -13.820312 26.84375 -13.960938 26.84375 -14.109375 C 26.382812 -17.722656 25.847656 -21.238281 25.234375 -24.65625 C 24.617188 -28.070312 24.175781 -31.757812 23.90625 -35.71875 C 24.21875 -36.988281 24.753906 -37.945312 25.515625 -38.59375 C 26.285156 -39.25 27.09375 -39.578125 27.9375 -39.578125 C 28.75 -39.578125 29.523438 -39.285156 30.265625 -38.703125 C 31.015625 -38.128906 31.566406 -37.226562 31.921875 -36 C 32.148438 -32.738281 32.597656 -29.492188 33.265625 -26.265625 C 33.941406 -23.046875 34.566406 -19.914062 35.140625 -16.875 C 35.710938 -13.84375 36 -10.984375 36 -8.296875 C 36 -5.722656 35.410156 -3.617188 34.234375 -1.984375 C 33.066406 -0.359375 31.296875 0.453125 28.921875 0.453125 C 27.648438 0.453125 26.457031 -0.0351562 25.34375 -1.015625 C 24.226562 -1.992188 23.191406 -3.285156 22.234375 -4.890625 C 21.273438 -6.503906 20.351562 -8.269531 19.46875 -10.1875 C 18.582031 -12.113281 17.726562 -14.035156 16.90625 -15.953125 C 16.082031 -17.878906 15.265625 -19.609375 14.453125 -21.140625 C 14.304688 -21.410156 14.144531 -21.671875 13.96875 -21.921875 C 13.800781 -22.171875 13.675781 -22.296875 13.59375 -22.296875 C 13.4375 -22.296875 13.359375 -22.101562 13.359375 -21.71875 C 13.359375 -21.601562 13.367188 -21.457031 13.390625 -21.28125 C 13.410156 -21.113281 13.441406 -20.914062 13.484375 -20.6875 C 13.710938 -18.914062 13.941406 -17.222656 14.171875 -15.609375 C 14.398438 -13.992188 14.515625 -12.191406 14.515625 -10.203125 C 14.515625 -8.929688 14.457031 -7.660156 14.34375 -6.390625 C 14.226562 -5.128906 14.019531 -3.882812 13.71875 -2.65625 Z M 13.71875 -2.65625 " data-index="4"></path></g></g></g><g fill="#ff3131" fill-opacity="1"><g transform="translate(222.307051, 181.887482)"><g><path d="M 2.875 -22.40625 C 2.875 -25.40625 3.363281 -28.160156 4.34375 -30.671875 C 5.320312 -33.191406 6.828125 -35.195312 8.859375 -36.6875 C 10.898438 -38.1875 13.535156 -38.9375 16.765625 -38.9375 C 19.335938 -38.9375 21.570312 -38.285156 23.46875 -36.984375 C 25.375 -35.679688 26.957031 -33.929688 28.21875 -31.734375 C 29.488281 -29.546875 30.441406 -27.085938 31.078125 -24.359375 C 31.710938 -21.640625 32.03125 -18.859375 32.03125 -16.015625 C 32.03125 -14.210938 31.738281 -12.359375 31.15625 -10.453125 C 30.582031 -8.554688 29.71875 -6.789062 28.5625 -5.15625 C 27.414062 -3.519531 26.023438 -2.203125 24.390625 -1.203125 C 22.765625 -0.210938 20.875 0.28125 18.71875 0.28125 C 16.644531 0.28125 14.765625 -0.207031 13.078125 -1.1875 C 11.390625 -2.164062 9.910156 -3.46875 8.640625 -5.09375 C 7.367188 -6.726562 6.300781 -8.539062 5.4375 -10.53125 C 4.570312 -12.53125 3.925781 -14.554688 3.5 -16.609375 C 3.082031 -18.671875 2.875 -20.601562 2.875 -22.40625 Z M 18.375 -8.125 C 19.601562 -8.125 20.640625 -8.488281 21.484375 -9.21875 C 22.328125 -9.945312 22.96875 -10.914062 23.40625 -12.125 C 23.851562 -13.332031 24.078125 -14.609375 24.078125 -15.953125 C 24.078125 -16.878906 23.988281 -17.972656 23.8125 -19.234375 C 23.644531 -20.503906 23.367188 -21.8125 22.984375 -23.15625 C 22.597656 -24.5 22.109375 -25.742188 21.515625 -26.890625 C 20.921875 -28.046875 20.203125 -28.976562 19.359375 -29.6875 C 18.515625 -30.40625 17.550781 -30.765625 16.46875 -30.765625 C 14.507812 -30.765625 13.078125 -29.984375 12.171875 -28.421875 C 11.273438 -26.867188 10.828125 -25.019531 10.828125 -22.875 C 10.828125 -22.21875 10.910156 -21.300781 11.078125 -20.125 C 11.253906 -18.957031 11.523438 -17.679688 11.890625 -16.296875 C 12.253906 -14.921875 12.722656 -13.609375 13.296875 -12.359375 C 13.878906 -11.109375 14.59375 -10.085938 15.4375 -9.296875 C 16.28125 -8.515625 17.257812 -8.125 18.375 -8.125 Z M 18.375 -8.125 " data-index="5"></path></g></g></g><g fill="#ff3131" fill-opacity="1"><g transform="translate(257.2112, 181.887482)"><g><path d="M 2.296875 -35.203125 C 2.609375 -36.460938 3.144531 -37.421875 3.90625 -38.078125 C 4.675781 -38.734375 5.488281 -39.0625 6.34375 -39.0625 C 7.144531 -39.0625 7.921875 -38.769531 8.671875 -38.1875 C 9.421875 -37.613281 9.96875 -36.710938 10.3125 -35.484375 C 10.539062 -33.140625 10.953125 -30.625 11.546875 -27.9375 C 12.140625 -25.25 12.878906 -22.5625 13.765625 -19.875 C 14.648438 -17.1875 15.59375 -14.632812 16.59375 -12.21875 C 16.894531 -11.488281 17.113281 -10.929688 17.25 -10.546875 C 17.382812 -10.160156 17.507812 -9.96875 17.625 -9.96875 C 17.738281 -9.96875 18.085938 -10.617188 18.671875 -11.921875 C 19.929688 -14.878906 20.953125 -17.757812 21.734375 -20.5625 C 22.523438 -23.363281 23.171875 -26.398438 23.671875 -29.671875 C 23.785156 -30.515625 23.898438 -31.460938 24.015625 -32.515625 C 24.140625 -33.578125 24.34375 -34.585938 24.625 -35.546875 C 24.914062 -36.503906 25.394531 -37.300781 26.0625 -37.9375 C 26.738281 -38.570312 27.710938 -38.890625 28.984375 -38.890625 C 30.015625 -38.890625 30.882812 -38.53125 31.59375 -37.8125 C 32.3125 -37.101562 32.671875 -36.175781 32.671875 -35.03125 C 32.671875 -31.644531 32.296875 -28.203125 31.546875 -24.703125 C 30.796875 -21.210938 29.796875 -17.796875 28.546875 -14.453125 C 27.296875 -11.117188 25.882812 -7.953125 24.3125 -4.953125 C 23.882812 -4.148438 23.316406 -3.382812 22.609375 -2.65625 C 21.898438 -1.925781 21.140625 -1.328125 20.328125 -0.859375 C 19.523438 -0.398438 18.78125 -0.171875 18.09375 -0.171875 C 16.59375 -0.171875 15.296875 -0.4375 14.203125 -0.96875 C 13.109375 -1.507812 12.289062 -2.378906 11.75 -3.578125 C 9.519531 -8.367188 7.507812 -13.429688 5.71875 -18.765625 C 3.9375 -24.109375 2.796875 -29.585938 2.296875 -35.203125 Z M 2.296875 -35.203125 " data-index="6"></path></g></g></g><g fill="#ff3131" fill-opacity="1"><g transform="translate(292.172914, 181.887482)"><g><path d="M 14.75 -10.828125 C 14.207031 -10.910156 13.707031 -11.035156 13.25 -11.203125 C 12.789062 -11.378906 12.390625 -11.601562 12.046875 -11.875 C 11.960938 -10.757812 11.875 -9.882812 11.78125 -9.25 C 11.6875 -8.613281 11.609375 -7.96875 11.546875 -7.3125 C 11.492188 -6.664062 11.46875 -5.785156 11.46875 -4.671875 C 11.425781 -3.171875 10.988281 -2.046875 10.15625 -1.296875 C 9.332031 -0.546875 8.441406 -0.171875 7.484375 -0.171875 C 6.566406 -0.171875 5.710938 -0.515625 4.921875 -1.203125 C 4.140625 -1.898438 3.648438 -2.957031 3.453125 -4.375 C 3.453125 -9.175781 3.804688 -13.796875 4.515625 -18.234375 C 5.234375 -22.671875 5.992188 -26.75 6.796875 -30.46875 C 7.179688 -32.28125 7.648438 -33.941406 8.203125 -35.453125 C 8.765625 -36.972656 9.640625 -38.191406 10.828125 -39.109375 C 12.015625 -40.035156 13.742188 -40.5 16.015625 -40.5 C 16.472656 -40.5 16.921875 -40.398438 17.359375 -40.203125 C 17.804688 -40.015625 18.28125 -39.726562 18.78125 -39.34375 C 20.507812 -37.613281 22.054688 -35.421875 23.421875 -32.765625 C 24.785156 -30.117188 25.972656 -27.28125 26.984375 -24.25 C 28.003906 -21.21875 28.867188 -18.222656 29.578125 -15.265625 C 30.285156 -12.304688 30.851562 -9.65625 31.28125 -7.3125 L 31.96875 -5.703125 C 32.164062 -5.015625 32.265625 -4.4375 32.265625 -3.96875 C 32.265625 -2.78125 31.890625 -1.820312 31.140625 -1.09375 C 30.390625 -0.363281 29.515625 0 28.515625 0 C 27.328125 0 26.394531 -0.363281 25.71875 -1.09375 C 25.050781 -1.820312 24.539062 -2.722656 24.1875 -3.796875 C 23.84375 -4.878906 23.566406 -5.957031 23.359375 -7.03125 C 23.148438 -8.101562 22.929688 -9.003906 22.703125 -9.734375 C 22.472656 -10.460938 22.109375 -10.828125 21.609375 -10.828125 C 21.566406 -10.828125 21.523438 -10.828125 21.484375 -10.828125 C 21.453125 -10.828125 21.414062 -10.828125 21.375 -10.828125 Z M 15.609375 -30.875 C 15.222656 -29.644531 14.742188 -28.3125 14.171875 -26.875 C 13.597656 -25.4375 13.3125 -23.890625 13.3125 -22.234375 C 13.3125 -21.160156 13.414062 -20.328125 13.625 -19.734375 C 13.832031 -19.140625 14.300781 -18.84375 15.03125 -18.84375 L 19.640625 -18.84375 C 20.066406 -18.84375 20.28125 -19.015625 20.28125 -19.359375 C 20.28125 -19.515625 20.257812 -19.65625 20.21875 -19.78125 C 20.175781 -19.914062 20.140625 -20.0625 20.109375 -20.21875 C 19.523438 -22.132812 18.878906 -23.890625 18.171875 -25.484375 C 17.460938 -27.085938 16.609375 -28.882812 15.609375 -30.875 Z M 15.609375 -30.875 " data-index="7"></path></g></g></g><g fill="#24282b" fill-opacity="1"><g transform="translate(169.666693, 202.642472)"><g><path d="M 7.703125 -0.265625 L 7.703125 0 L 5.15625 0 L 5.15625 -0.265625 L 5.671875 -0.328125 C 5.765625 -0.335938 5.820312 -0.363281 5.84375 -0.40625 C 5.863281 -0.445312 5.875 -0.570312 5.875 -0.78125 L 5.875 -5.5625 L 4.171875 -0.75 L 3.171875 -0.75 L 1.484375 -5.546875 L 1.484375 -0.78125 C 1.484375 -0.570312 1.492188 -0.445312 1.515625 -0.40625 C 1.535156 -0.363281 1.59375 -0.335938 1.6875 -0.328125 L 2.203125 -0.265625 L 2.203125 0 L 0.40625 0 L 0.40625 -0.265625 L 0.90625 -0.328125 C 1.007812 -0.335938 1.070312 -0.363281 1.09375 -0.40625 C 1.113281 -0.445312 1.125 -0.570312 1.125 -0.78125 L 1.125 -5.546875 C 1.125 -5.753906 1.113281 -5.878906 1.09375 -5.921875 C 1.070312 -5.960938 1.007812 -5.988281 0.90625 -6 L 0.40625 -6.078125 L 0.40625 -6.328125 L 2.359375 -6.328125 L 4.0625 -1.484375 L 5.796875 -6.328125 L 7.703125 -6.328125 L 7.703125 -6.078125 L 7.203125 -6 C 7.097656 -5.988281 7.035156 -5.960938 7.015625 -5.921875 C 7.003906 -5.878906 7 -5.753906 7 -5.546875 L 7 -0.78125 C 7 -0.570312 7.003906 -0.445312 7.015625 -0.40625 C 7.035156 -0.363281 7.097656 -0.335938 7.203125 -0.328125 Z M 7.703125 -0.265625 " data-index="8"></path></g></g></g><g fill="#24282b" fill-opacity="1"><g transform="translate(180.379061, 202.642472)"><g><path d="M 4.75 -1.609375 L 5.015625 -1.609375 L 5.015625 0 L 0.40625 0 L 0.40625 -0.265625 L 0.90625 -0.328125 C 1.007812 -0.335938 1.070312 -0.363281 1.09375 -0.40625 C 1.113281 -0.445312 1.125 -0.570312 1.125 -0.78125 L 1.125 -5.546875 C 1.125 -5.753906 1.113281 -5.878906 1.09375 -5.921875 C 1.070312 -5.960938 1.007812 -5.988281 0.90625 -6 L 0.40625 -6.078125 L 0.40625 -6.328125 L 4.921875 -6.328125 L 4.921875 -4.734375 L 4.65625 -4.734375 L 4.359375 -5.765625 C 4.335938 -5.835938 4.316406 -5.890625 4.296875 -5.921875 C 4.273438 -5.960938 4.234375 -5.984375 4.171875 -5.984375 C 4.109375 -5.992188 4.003906 -6 3.859375 -6 L 2.234375 -6 L 2.234375 -3.359375 L 3.296875 -3.359375 C 3.441406 -3.359375 3.546875 -3.363281 3.609375 -3.375 C 3.671875 -3.382812 3.710938 -3.40625 3.734375 -3.4375 C 3.753906 -3.46875 3.773438 -3.523438 3.796875 -3.609375 L 4 -4.359375 L 4.265625 -4.359375 L 4.265625 -2.046875 L 4 -2.046875 L 3.796875 -2.796875 C 3.773438 -2.867188 3.753906 -2.921875 3.734375 -2.953125 C 3.710938 -2.992188 3.671875 -3.015625 3.609375 -3.015625 C 3.546875 -3.023438 3.441406 -3.03125 3.296875 -3.03125 L 2.234375 -3.03125 L 2.234375 -0.328125 L 3.953125 -0.328125 C 4.097656 -0.328125 4.203125 -0.332031 4.265625 -0.34375 C 4.328125 -0.351562 4.367188 -0.375 4.390625 -0.40625 C 4.410156 -0.4375 4.429688 -0.488281 4.453125 -0.5625 Z M 4.75 -1.609375 " data-index="9"></path></g></g></g><g fill="#24282b" fill-opacity="1"><g transform="translate(188.597763, 202.642472)"><g><path d="M 0.40625 -6.078125 L 0.40625 -6.328125 L 3.140625 -6.328125 C 3.941406 -6.328125 4.550781 -6.09375 4.96875 -5.625 C 5.394531 -5.164062 5.609375 -4.445312 5.609375 -3.46875 L 5.609375 -2.875 C 5.609375 -1.894531 5.394531 -1.171875 4.96875 -0.703125 C 4.550781 -0.234375 3.941406 0 3.140625 0 L 0.40625 0 L 0.40625 -0.265625 L 0.90625 -0.328125 C 1.007812 -0.335938 1.070312 -0.363281 1.09375 -0.40625 C 1.113281 -0.445312 1.125 -0.570312 1.125 -0.78125 L 1.125 -5.546875 C 1.125 -5.753906 1.113281 -5.878906 1.09375 -5.921875 C 1.070312 -5.960938 1.007812 -5.988281 0.90625 -6 Z M 3.09375 -6 L 2.234375 -6 L 2.234375 -0.328125 L 3.09375 -0.328125 C 3.414062 -0.328125 3.671875 -0.378906 3.859375 -0.484375 C 4.054688 -0.597656 4.195312 -0.804688 4.28125 -1.109375 C 4.375 -1.410156 4.421875 -1.84375 4.421875 -2.40625 L 4.421875 -3.9375 C 4.421875 -4.5 4.375 -4.929688 4.28125 -5.234375 C 4.195312 -5.535156 4.054688 -5.738281 3.859375 -5.84375 C 3.671875 -5.945312 3.414062 -6 3.09375 -6 Z M 3.09375 -6 " data-index="10"></path></g></g></g><g fill="#24282b" fill-opacity="1"><g transform="translate(197.430578, 202.642472)"><g><path d="M 0.40625 -6.078125 L 0.40625 -6.328125 L 2.953125 -6.328125 L 2.953125 -6.078125 L 2.4375 -6 C 2.34375 -5.988281 2.285156 -5.960938 2.265625 -5.921875 C 2.242188 -5.878906 2.234375 -5.753906 2.234375 -5.546875 L 2.234375 -0.78125 C 2.234375 -0.570312 2.242188 -0.445312 2.265625 -0.40625 C 2.285156 -0.363281 2.34375 -0.335938 2.4375 -0.328125 L 2.953125 -0.265625 L 2.953125 0 L 0.40625 0 L 0.40625 -0.265625 L 0.90625 -0.328125 C 1.007812 -0.335938 1.070312 -0.363281 1.09375 -0.40625 C 1.113281 -0.445312 1.125 -0.570312 1.125 -0.78125 L 1.125 -5.546875 C 1.125 -5.753906 1.113281 -5.878906 1.09375 -5.921875 C 1.070312 -5.960938 1.007812 -5.988281 0.90625 -6 Z M 0.40625 -6.078125 " data-index="11"></path></g></g></g><g fill="#24282b" fill-opacity="1"><g transform="translate(203.388223, 202.642472)"><g><path d="M 1.734375 -0.265625 L 1.734375 0 L -0.0625 0 L -0.0625 -0.265625 L 0.453125 -0.328125 C 0.523438 -0.335938 0.578125 -0.347656 0.609375 -0.359375 C 0.640625 -0.378906 0.664062 -0.421875 0.6875 -0.484375 C 0.707031 -0.546875 0.742188 -0.644531 0.796875 -0.78125 L 2.5625 -6.328125 L 3.375 -6.328125 L 5.15625 -0.78125 C 5.195312 -0.644531 5.226562 -0.546875 5.25 -0.484375 C 5.28125 -0.421875 5.3125 -0.378906 5.34375 -0.359375 C 5.382812 -0.347656 5.4375 -0.335938 5.5 -0.328125 L 6 -0.265625 L 6 0 L 3.4375 0 L 3.4375 -0.265625 L 3.953125 -0.328125 C 4.046875 -0.335938 4.097656 -0.363281 4.109375 -0.40625 C 4.117188 -0.445312 4.085938 -0.570312 4.015625 -0.78125 L 3.671875 -1.9375 L 1.515625 -1.9375 L 1.15625 -0.78125 C 1.09375 -0.570312 1.0625 -0.445312 1.0625 -0.40625 C 1.070312 -0.363281 1.128906 -0.335938 1.234375 -0.328125 Z M 1.625 -2.265625 L 3.5625 -2.265625 L 2.609375 -5.359375 Z M 1.625 -2.265625 " data-index="12"></path></g></g></g><path stroke-linecap="round" transform="matrix(0.75, 0, 0, 0.75, 165.866638, 124.137486)" fill="none" stroke-linejoin="miter" d="M 8.000733 7.998977 L 49.688235 7.998977 " stroke="#ff3131" stroke-width="16" stroke-opacity="1" stroke-miterlimit="4" data-index="13"></path></svg>